<svg width="30" height="30" viewBox="0 0 30 30" fill="none" xmlns="http://www.w3.org/2000/svg">
<path d="M13.7496 27.7305C6.16863 27.7305 0 21.5621 0 13.9811C0 6.40008 6.16863 0.231445 13.7496 0.231445C16.3858 0.231445 18.9506 0.982612 21.1668 2.40507C21.6019 2.68521 21.7294 3.26518 21.4492 3.70141C21.1682 4.13765 20.5893 4.26376 20.1531 3.98385C18.2406 2.75502 16.0258 2.10639 13.7496 2.10639C7.20223 2.10639 1.87494 7.43367 1.87494 13.9811C1.87494 20.5283 7.20223 25.8556 13.7496 25.8556C20.2968 25.8556 25.6241 20.5283 25.6241 13.9811C25.6241 13.5897 25.6054 13.2022 25.5692 12.8212C25.5193 12.3048 25.8967 11.8473 26.4117 11.7974C26.9292 11.7498 27.3853 12.1249 27.4354 12.6399C27.4778 13.0812 27.4991 13.5286 27.4991 13.9811C27.4991 21.5621 21.3307 27.7305 13.7496 27.7305Z" fill="#D97014"/>
<path d="M15.3118 17.1056C15.072 17.1056 14.8319 17.0143 14.6495 16.8307L9.02465 11.2059C8.65845 10.8394 8.65845 10.2457 9.02465 9.87954C9.39085 9.51334 9.98455 9.51334 10.3507 9.87954L15.3132 14.842L28.3989 1.75609C28.7653 1.3899 29.359 1.3899 29.7252 1.75609C30.0914 2.12229 30.0914 2.716 29.7252 3.08219L15.9756 16.8318C15.7918 17.0143 15.5519 17.1056 15.3118 17.1056Z" fill="#D97014"/>
</svg>
