<svg width="187" height="70" viewBox="0 0 187 70" fill="none" xmlns="http://www.w3.org/2000/svg">
<path d="M182.389 41.1284L186.363 2.28839C186.37 2.23591 186.35 2.18757 186.349 2.13459C186.35 2.03029 186.339 1.934 186.32 1.82985C186.307 1.77019 186.315 1.70755 186.3 1.64622C186.284 1.59222 186.247 1.54854 186.227 1.49571C186.207 1.44738 186.211 1.40056 186.185 1.35622C186.159 1.30738 186.117 1.27952 186.089 1.23351C186.058 1.18583 186.044 1.12902 186.006 1.08083C185.97 1.03432 185.913 1.00543 185.872 0.962917C185.799 0.887374 185.721 0.82032 185.636 0.760098C185.59 0.726066 185.557 0.681229 185.508 0.652867L185.505 0.651194C185.456 0.622825 185.402 0.622106 185.353 0.60107C185.252 0.554497 185.151 0.522589 185.044 0.494673C184.935 0.469581 184.831 0.450658 184.721 0.447561C184.623 0.443811 184.527 0.451889 184.427 0.465631C184.365 0.47457 184.297 0.465505 184.234 0.481778C184.18 0.495726 184.138 0.531009 184.083 0.552284C184.04 0.568411 183.991 0.566534 183.946 0.585492L148.974 17.5066C148.165 17.8979 147.851 18.8801 148.273 19.6982C148.431 20.0059 148.67 20.2442 148.949 20.4044C149.413 20.6714 149.996 20.7142 150.503 20.4713L180.439 5.98846C144.115 64.9154 65.8792 83.8649 3.25394 47.8832C2.45236 47.4226 1.44784 47.683 1.01171 48.4643C0.575591 49.2456 0.872196 50.2535 1.67378 50.7141C65.2981 87.2699 144.656 68.509 182.305 9.34511L179.097 40.6838C179.028 41.358 179.385 41.9967 179.951 42.3221C180.137 42.4289 180.347 42.5051 180.573 42.5338C181.486 42.658 182.297 42.0288 182.389 41.1284Z" fill="#2A03CC"/>
</svg>
