<svg width="142" height="349" viewBox="0 0 142 349" fill="none" xmlns="http://www.w3.org/2000/svg">
<path d="M6.74487 389.398C5.9227 389.661 5.13479 390.06 4.40375 390.585C3.40487 374.574 7.91543 359.429 14.1818 345.207C25.9655 318.893 40.496 295.601 46.3644 267.035C47.7509 262.56 49.6756 258.355 52.0767 254.556C61.5583 239.327 77.9929 228.967 89.8546 216.045C95.8713 209.697 97.6583 199.412 90.8535 192.753C73.8101 175.508 50.5004 164.018 44.8115 136.366C44.4681 132.015 44.4369 127.72 44.4291 123.472C45.4748 100.181 25.1773 91.7139 9.13281 88.3892C2.10945 86.8729 -1.1447 78.9709 0.361419 70.8429C5.64454 44.2268 21.1818 26.3886 32.9576 3.6999C33.738 2.18356 34.4637 4.00129 35.2129 3.6999C23.9365 24.8722 7.6501 42.7199 3.13955 69.0346C1.88315 75.6934 3.91992 82.9831 9.38253 84.7632C26.1762 90.207 49.4859 97.4685 47.3867 123.472C47.3867 127.72 47.3867 132.015 47.7223 136.357C52.7401 162.502 74.2549 174.03 90.8379 189.73C94.849 193.667 99.859 198.809 97.8612 204.856C92.1021 224.258 74.3174 231.472 62.284 245.081C60.0447 247.471 57.9747 250.083 56.0957 252.889C54.2564 255.636 52.6463 258.595 51.2886 261.724C50.2409 264.073 49.3081 266.495 48.4948 268.976C44.7334 282.284 40.972 294.989 34.7134 307.393C22.1806 332.201 7.14286 355.492 6.62001 384.435C6.52736 386.09 6.56918 387.752 6.74487 389.398Z" fill="#2A03CC"/>
<path d="M14.1406 385.311C13.1163 385.769 12.1179 386.307 11.1517 386.922C7.39034 353.647 28.4448 327.935 41.7268 300.405C47.7434 288.001 50.7479 274.693 56.0622 262.232C57.3803 259.145 58.9265 256.207 60.682 253.454C62.4584 250.669 64.4183 248.061 66.5426 245.656C78.3263 232.046 95.8691 224.785 102.385 206.033C105.897 196.05 96.1422 189.702 89.8524 184.258C74.0654 171.251 56.5148 159.45 52.5427 136.328C52.2696 131.995 52.254 127.701 52.254 123.453C55.516 95.9325 31.1839 87.4654 13.6645 81.0704C8.1473 79.2526 5.86081 71.9911 7.42155 65.3418C12.1818 41.146 26.9699 25.1066 38.5038 4.53694C39.2842 2.7192 40.2597 4.83833 41.0088 3.93417C29.9509 23.6468 13.407 40.2984 10.1607 64.7955C7.89758 82.6433 26.9465 82.3419 36.9665 87.7857C45.2384 92.3253 53.5104 99.5868 54.8136 111.058C55.1492 115.052 55.2038 119.224 55.2038 123.472C55.2038 127.117 55.2038 130.79 55.3209 134.491C58.7701 161.899 81.0732 173.7 98.3741 189.118C102.635 193.054 107.145 197.594 106.178 204.545C104.921 212.08 100.161 216.346 95.6506 221.178C87.8468 229.343 78.4199 236.53 70.6162 244.987C68.0412 247.735 65.6582 250.734 63.4914 253.953C57.303 263.231 54.5483 275.022 50.5372 285.91C38.7535 317.367 13.6958 342.476 12.1818 378.21C13.0168 383.333 14.1406 385.311 14.1406 385.311Z" fill="#2A03CC"/>
<path d="M22.2978 380.772C20.9321 380.904 19.6757 382.722 19.1763 382.119C15.9143 378.794 15.1652 373.642 15.9143 368.509C17.6702 356.708 21.931 347.036 27.1907 336.751C38.9743 314.363 52.2563 295.31 59.7713 270.822C60.8086 268.102 61.9625 265.449 63.2283 262.873C65.0755 258.791 67.2782 254.958 69.7991 251.44C79.7254 237.576 95.0441 228.035 105.907 215.132C113.43 206.363 111.424 194.562 103.152 187.904C85.3597 173.993 63.0488 161.589 60.3097 134.483C60.0756 130.781 60.0756 127.108 60.0756 123.463C60.0756 119.216 60.0756 114.987 59.9039 110.928C58.2729 90.518 39.7313 83.5578 25.4427 78.7168C18.6768 76.2963 11.911 69.2985 14.416 60.2663C20.183 38.7925 33.4649 17.8838 46.7468 4.00122C36.2196 23.0545 18.6534 39.0939 16.921 63.3367C16.6713 67.8763 19.426 71.8132 22.688 73.6215C37.9755 82.7008 61.2852 86.0254 62.924 110.956C63.0176 115.072 63.0176 119.272 63.0176 123.52C63.0176 127.165 63.0176 130.838 63.1113 134.539C64.2974 151.059 74.8169 162.549 85.8513 172.533C95.6294 181.612 109.66 185.54 113.422 200.364C115.427 207.324 109.91 213.371 105.618 218.212C97.8144 227.291 87.9505 234.844 79.6474 243.641C76.9049 246.496 74.353 249.608 72.0153 252.946C69.4306 256.51 67.2619 260.484 65.5694 264.757C59.8025 278.065 55.2919 290.77 48.2764 303.476C36.2196 326.457 17.1863 347.328 18.9734 375.168C19.7702 377.278 20.8992 379.182 22.2978 380.772Z" fill="#2A03CC"/>
<path d="M31.0361 376.298C27.4464 379.688 24.6838 375.761 23.4352 372.436C19.4241 361.247 25.6905 350.049 30.4586 340.678C44.24 313.449 60.0348 290.76 71.3112 262.336C72.5676 259.011 74.8228 255.677 76.9142 252.635C79.2612 249.256 81.8262 246.107 84.5853 243.217C92.9275 234.345 102.893 226.782 110.915 217.863C117.158 210.601 122.948 199.412 114.677 191.246C97.1337 174.293 70.8117 164.329 67.9712 134.501C67.8775 130.8 67.8775 127.126 67.8775 123.482C67.8775 119.234 67.8775 115.005 67.8775 110.889C68.0882 98.6454 61.3224 89.3119 52.8007 83.5761C42.4842 76.2957 28.1955 77.5013 22.1788 63.8918C18.4174 55.1233 24.1844 46.0441 28.4218 38.4623C35.0979 26.3783 42.5611 14.9554 50.7405 4.30203C50.9902 3.69925 51.9969 4.00064 52.7461 4.00064C42.4842 20.332 28.1955 34.2523 24.2078 55.4247C22.452 63.5904 28.2189 69.0342 33.7284 71.7561C49.2656 78.7162 71.3268 86.5805 70.8273 110.87C70.8273 115.014 70.8273 119.215 70.8273 123.472C70.8273 127.117 70.8273 130.79 70.9288 134.492C73.067 158.273 91.3668 170.667 107.403 182.469C113.646 187.008 123.19 191.887 121.185 201.522C116.924 223.608 96.6187 231.171 84.3434 246.899C80.9553 251.172 77.8258 255.733 74.9789 260.546C73.6419 262.646 72.4194 264.848 71.319 267.139C68.3145 274.099 66.309 280.749 63.047 287.408C52.7695 307.977 39.4875 324.007 30.2167 344.859C26.705 352.724 21.9447 363.008 26.5021 371.598C27.7943 373.449 29.3253 375.035 31.0361 376.298Z" fill="#2A03CC"/>
<path d="M40.0406 372.191C38.9715 372.728 37.6995 373.943 36.4665 373.341C31.4565 371.523 27.6951 365.806 28.9437 358.817C31.2302 345.811 37.2157 336.138 43.7162 325.552C56.4987 304.982 68.7818 286.532 78.0526 263.542C79.309 260.217 81.5643 257.495 83.5152 254.491C85.7164 251.326 88.0832 248.334 90.601 245.534C93.106 242.708 95.6968 239.949 98.1394 237.217C108.417 226.028 121.949 218.466 126.459 202.436C127.965 196.389 123.954 191.548 119.693 187.913C102.15 172.787 78.0916 162.803 75.9066 134.492C75.6803 130.79 75.6803 127.117 75.6803 123.472C75.6803 119.222 75.6803 115.021 75.6803 110.871C77.0849 85.0644 53.7752 76.5973 37.7385 68.733C34.2269 66.9153 30.4733 64.1934 28.9671 59.6537C26.9616 52.995 29.4666 46.3456 32.7285 40.9019C40.5323 26.991 48.016 11.8652 59.0427 3.69946C49.249 18.5239 36.2168 31.1821 31.4565 50.0188C30.2001 55.764 31.956 61.82 36.2168 64.5419C53.2601 75.7308 80.3313 81.7868 78.6223 110.918V123.482C78.6223 127.127 78.6223 130.8 78.8564 134.501C81.3302 164.329 108.152 173.116 125.445 189.74C136.222 200.326 124.446 213.634 117.173 221.197C109.65 229.363 100.629 236.699 93.2152 245.232C90.7646 248.011 88.5021 251.022 86.4494 254.236C80.0738 264.455 75.8129 275.946 69.804 287.135C59.2768 306.499 46.9937 320.711 37.2235 340.376C33.2124 348.542 28.2024 360.042 34.4376 368.057C36.1673 369.691 38.0474 371.078 40.0406 372.191Z" fill="#2A03CC"/>
<path d="M49.1823 368.527C44.5001 371.522 39.0374 366.992 37.0085 361.85C33.4968 353.081 38.5146 343.701 43.0252 336.138C59.0696 308.608 75.356 286.833 89.1452 258.097C90.4686 255.558 91.9698 253.16 93.6323 250.93C96.2079 247.303 98.9986 243.907 101.982 240.768C111.011 231.105 121.601 222.553 129.498 211.816C133.01 206.975 136.764 200.627 133.509 194.27C126.744 181.564 115.21 178.258 104.94 169.782C94.4127 161.014 84.1352 150.117 83.7684 134.51C83.5187 130.809 83.5187 127.136 83.5187 123.491V110.871C85.6413 85.6671 64.5868 74.4782 48.0429 66.6045C42.7832 64.184 36.2593 60.8593 35.5102 53.2964C35.2136 48.1352 36.6963 43.6238 39.2247 39.0842C46.7475 25.7761 54.2625 10.6503 65.5701 3.39819C55.2692 18.524 37.9761 32.4348 38.7253 53.6072C38.975 57.8454 42.4867 60.5673 45.4911 62.3756C63.0339 72.359 88.8486 81.7397 86.4295 110.871V123.482C86.4295 127.127 86.4295 130.8 86.5465 134.501C88.8877 161.607 111.909 171.289 129.202 184.898C133.213 188.223 137.224 191.859 137.474 197.604C137.973 206.372 131.457 212.428 126.697 218.475C119.174 227.243 109.903 235.032 102.131 243.979C99.556 246.902 97.1641 250.05 94.9746 253.398C80.327 281.389 63.7597 305.895 46.49 333.453C40.9728 341.93 33.4578 356.443 42.6428 364.619C44.7299 366.136 46.9171 367.443 49.1823 368.527Z" fill="#2A03CC"/>
<path d="M58.1181 365.381C53.0066 367.905 47.4972 363.667 44.7347 358.525C39.2174 348.843 46.2408 338.558 51.2508 330.694C67.545 304.982 84.3308 283.207 97.6674 256.637C99.8005 253.135 102.123 249.806 104.62 246.673C112.151 237.255 121.547 229.051 129.194 220.302C134.961 213.341 144.482 206.08 141.727 196.106C136.717 177.655 116.911 175.536 105.136 162.53C97.8703 154.665 91.8692 145.285 91.3385 133.597C91.2683 129.744 91.2683 125.93 91.2683 122.144V110.87C91.3157 106.809 91.1567 102.749 90.7923 98.7111C88.5916 85.6761 79.3208 77.501 69.7925 71.4544C60.5216 65.1065 46.233 63.9198 42.971 50.2821C41.7146 44.5369 44.4772 38.7917 47.4816 34.2709C54.7469 22.4698 61.7702 8.84145 72.2975 2.81372C62.5194 16.4232 48.2386 27.923 45.7648 46.9762C44.7659 53.0228 49.0267 56.9596 53.03 59.6815C68.3175 69.3636 89.372 75.6927 93.6485 98.7393C94.1353 102.764 94.3363 106.832 94.2493 110.898V122.134C94.2493 125.902 94.2493 129.744 94.3118 133.587C96.6529 161.315 120.696 171.26 138.489 184.003C149.266 191.868 145.005 206.089 137.232 214.556C128.586 224.238 118.121 233.007 109.677 243.254C106.879 246.618 104.301 250.239 101.967 254.085C89.6139 276.265 77.0811 297.409 61.7936 317.706C55.2775 326.182 49.0111 334.951 46.0067 346.441C44.7503 351.885 46.0067 358.544 50.5172 360.983C52.9691 362.647 55.5081 364.116 58.1181 365.381Z" fill="#2A03CC"/>
<path d="M66.9298 362.707C61.5375 364.874 56.0046 360.334 52.2666 355.493C46.7494 348.231 51.7672 338.54 56.028 331.599C72.5719 305.585 90.8638 284.714 104.903 257.458C106.912 253.972 109.096 250.638 111.442 247.474C113.783 244.31 116.249 241.305 118.692 238.433C128.47 227.847 138.24 218.466 147.012 206.674C152.271 199.413 151.272 189.429 144.257 183.985C126.441 170.367 101.891 161.598 99.128 133.569C99.0578 129.717 99.0578 125.903 99.0578 122.116V110.871C99.0578 106.718 99.0578 102.63 98.7768 98.6272C94.6175 74.1772 72.5953 68.1307 56.5197 56.9323C53.765 54.8132 51.0024 52.3927 50.2767 48.1638C49.0047 38.4818 54.2644 30.6175 59.5319 24.2696C65.572 16.4053 70.8083 5.50826 79.0802 2.18359C69.8094 13.9847 57.7683 24.2696 53.2655 40.6009C51.26 47.8624 55.5208 53.6076 60.5308 56.9323C76.5752 67.2171 97.8794 74.78 101.797 98.6178C102.031 102.63 102.039 106.727 102.039 110.862V122.098C102.039 125.865 102.039 129.708 102.109 133.55C104.146 157.953 125.45 168.238 141.487 179.427C145.747 182.45 151.265 185.172 152.264 190.917C155.268 214.51 130.71 225.096 118.926 240.834C116.858 243.782 114.743 246.768 112.738 249.838C98.371 273.808 83.8639 297.099 66.5397 318.875C60.7727 325.835 56.0124 333.398 53.2733 342.467C52.4282 345.425 52.5184 348.656 53.5267 351.538C54.535 354.42 56.3902 356.751 58.7359 358.083C63.6757 361.191 66.9298 362.707 66.9298 362.707Z" fill="#2A03CC"/>
<path d="M75.5709 360.399C68.7973 361.85 59.5265 356.114 57.7628 347.638C55.5154 337.343 62.7806 328.575 68.2979 321.266C85.0915 298.879 101.635 278.309 114.917 253.209C117.32 249.187 119.99 245.407 122.901 241.907C131.703 231.17 142.48 221.714 150.752 210.827C155.013 205.082 160.273 198.423 157.775 190.257C156.02 185.416 152.258 182.722 148.754 179.972C132.21 167.568 109.658 159.101 106.965 133.483C106.887 129.641 106.887 125.817 106.887 122.031V110.87C106.887 106.716 106.887 102.629 106.677 98.626C105.116 85.0918 96.6254 76.3139 87.3468 68.751C76.8195 60.2745 59.027 58.7675 57.7706 41.8334C57.2712 37.5951 59.2768 33.6676 61.532 30.343C68.7973 19.4271 75.8129 6.42037 86.0904 1.57935C76.5698 14.5861 50.2478 33.6017 65.2856 50.5547C79.824 66.8861 105.639 71.7272 109.626 98.5883C109.822 102.619 109.829 106.707 109.829 110.832V122.068C109.829 125.836 109.829 129.678 109.915 133.512C113.154 160.646 137.712 167.596 155.005 181.818C159.266 185.444 163.027 190.897 160.772 196.944C154.006 216.308 137.462 226.282 125.936 241.709C123.806 244.431 121.707 247.266 119.763 250.186C106.388 274.033 91.1004 295.507 74.057 316.378C67.2912 324.544 59.2689 333.924 60.2756 346.027C60.5253 350.265 63.7873 353.562 66.9634 355.445C72.2153 358.751 75.5709 360.399 75.5709 360.399Z" fill="#2A03CC"/>
<path d="M84.0023 358.495C77.0726 359.117 69.3079 354.285 65.5465 346.722C61.5354 338.246 68.0515 329.477 72.8118 323.13C91.3612 298.322 110.91 276.547 125.198 248.414C127.221 245.444 129.367 242.599 131.628 239.891C142.757 226.47 155.57 216.345 164.545 199.392C167.807 193.044 165.801 186.084 161.033 181.846C143.99 167.021 118.175 161.276 114.811 133.53C114.694 129.697 114.694 125.882 114.694 122.096V110.87C114.694 106.716 114.694 102.629 114.484 98.6257C111.659 74.2041 90.6121 64.5221 74.5676 54.5387C67.8018 50.3005 61.7851 41.5321 66.7639 32.4529C73.5609 20.0301 82.3401 6.42071 93.1171 1.27832C83.339 13.3808 57.5243 32.434 73.0615 48.7653C88.349 64.7764 113.914 71.454 117.433 98.5975C117.636 102.629 117.644 106.716 117.644 110.841V122.077C117.59 125.883 117.7 129.69 117.972 133.483C121.179 159.449 144.988 166.108 161.782 179.114C165.294 182.138 169.305 185.462 168.548 190.605C165.793 214.198 145.238 224.511 132.955 241.464C130.887 244.289 128.866 247.114 127.009 250.157C113.407 276.245 95.864 297.418 77.3145 319.202C69.5108 328.281 61.5276 346.43 75.1373 353.287C80.5999 356.659 84.0023 358.495 84.0023 358.495Z" fill="#2A03CC"/>
<path d="M92.3235 356.905C84.5822 356.999 72.307 350.049 72.8142 340.668C74.57 314.052 99.6356 301.95 113.167 281.079C119.184 271.66 124.444 262.628 129.555 252.956C131.776 248.871 134.28 245.021 137.039 241.446C145.365 230.483 155.768 220.877 164.04 210.291C170.556 202.125 179.327 188.817 168.55 179.738C151.507 165.516 127.191 160.072 122.719 133.513C122.508 129.745 122.493 125.884 122.493 122.107V110.871C122.493 106.718 122.493 102.63 122.274 98.6273C119.153 71.1824 94.8675 63.3181 77.5745 48.7951C73.3058 45.1408 71.0271 39.0848 73.3058 33.3397C78.8309 19.7302 89.3503 6.69531 100.377 0.366211C92.5732 9.44545 83.8331 16.6975 77.5667 28.1973C70.3014 41.5053 82.0772 50.886 90.833 56.0284C105.621 65.1076 122.664 77.2007 125.169 98.5991C125.38 102.63 125.396 106.718 125.396 110.843V122.079C125.396 125.846 125.396 129.679 125.684 133.475C129.898 157.332 151.437 164.555 167.497 175.782C171.758 179.107 177.017 182.742 176.019 189.391C173.264 209.961 156.72 219.944 145.444 234.157C142.876 237.406 140.293 240.749 137.866 244.281C135.446 247.811 133.193 251.503 131.116 255.338C120.144 277.763 104.349 294.999 88.5621 313.157C82.5454 319.816 76.5288 326.465 74.7807 336.75C73.7819 343.71 78.7919 348.551 83.2556 351.311C88.8899 354.927 92.3235 356.905 92.3235 356.905Z" fill="#2A03CC"/>
<path d="M100.561 355.585C93.1165 356.094 84.5948 349.445 80.8334 341.58C76.0731 331.898 84.8445 322.216 90.6115 315.567C107.655 295.6 125.728 278.054 136.911 252.935C139.031 248.809 141.435 244.905 144.098 241.266C152.136 230.115 162.289 220.282 170.561 209.696C177.584 200.927 187.354 186.103 175.321 177.024C158.777 164.318 135.975 158.573 130.723 133.473C130.409 129.699 130.268 125.907 130.301 122.115V110.869C130.301 106.716 130.301 102.628 130.075 98.6255C126.954 70.8697 102.895 62.1013 85.5937 47.2768C82.5893 44.5549 80.0764 40.9289 80.334 36.6906C81.3329 19.7377 95.6215 11.2612 104.9 0.39245C105.899 -0.549382 106.906 0.39245 107.905 0.0910639C99.3829 8.56755 90.3618 16.4224 84.3451 28.525C81.0831 35.1837 83.3462 42.7466 88.6059 46.9754C106.398 61.4985 129.459 71.1711 133.025 98.6255C133.243 102.657 133.259 106.744 133.259 110.869V122.105C130.965 153.723 159.792 162.802 178.333 176.411C185.856 181.855 184.576 192.423 179.59 199.703C169.812 214.527 158.785 225.415 148.258 239.024C146.058 241.96 144.002 245.048 142.101 248.273C140.22 251.485 138.511 254.866 136.755 258.313C125.658 283.196 106.929 298.925 89.8545 318.289C81.8323 327.707 78.8279 344.001 91.4153 349.642C97.1198 353.457 100.561 355.585 100.561 355.585Z" fill="#2A03CC"/>
<path d="M108.684 354.551C100.381 353.675 88.1057 346.413 88.1057 336.43C88.3554 313.44 110.916 302.854 123.698 286.824C130.729 277.855 136.827 267.886 141.858 257.137C143.637 253.492 145.447 249.979 147.469 246.607C149.506 243.233 151.695 239.994 154.024 236.907C166.057 220.575 182.343 208.774 188.11 187.602C189.367 182.459 186.355 177.92 182.851 174.897C164.808 160.986 136.231 153.121 138.112 122.098V110.871C138.112 106.717 138.112 102.63 137.886 98.6271C133.984 70.2686 109.418 60.5866 91.8436 44.2553C88.0823 40.9306 86.3264 34.5733 88.8392 29.1295C94.6062 16.4242 104.376 4.64194 115.372 -0.519287C106.398 10.3494 87.5984 20.0314 92.1012 36.975C96.362 52.9861 113.405 56.0282 123.933 67.2265C131.955 75.703 139.72 85.677 140.828 98.6083C141.038 102.639 141.054 106.727 141.054 110.852V122.088C139.493 150.983 165.292 161.268 183.085 171.553C195.867 178.815 189.851 195.146 182.585 204.828C172.222 218.541 159.174 230.643 150.457 245.581C148.27 249.333 146.324 253.281 144.636 257.391C135.217 279.543 118.923 294.066 103.635 310.699C97.119 317.358 89.0967 324.921 90.3687 336.128C90.8682 341.271 94.6296 344.605 98.1725 347.148C104.657 351.876 108.684 354.551 108.684 354.551Z" fill="#2A03CC"/>
<path d="M116.738 353.807C109.153 353.676 102.387 346.113 97.1276 339.765C91.3606 332.805 96.6281 323.433 101.388 317.679C118.432 297.41 139.486 282.897 149.67 256.262C151.427 251.815 153.516 247.572 155.913 243.585C165.41 227.573 179.613 214.83 190.14 199.102C195.907 190.023 198.662 177.016 188.634 170.969C171.091 160.082 145.027 150.701 145.94 122.107C145.94 118.34 145.94 114.594 145.94 110.871C145.94 106.717 145.94 102.63 145.721 98.627C141.734 71.4551 119.415 60.2661 101.638 45.1402C97.627 41.5142 94.3728 36.3718 95.8712 30.6172C99.9057 16.4049 112.158 4.30232 122.942 -0.840088C114.67 7.63642 104.643 14.5871 99.6326 26.6897C95.122 36.9745 103.644 44.5375 110.41 49.6799C126.704 61.7824 144.996 74.7892 148.648 98.6081C148.851 102.639 148.866 106.727 148.866 110.852C148.866 114.557 148.866 118.302 148.866 122.088C148.499 151.897 175.82 157.944 193.348 172.165C204.124 180.642 195.353 194.553 189.087 203.02C179.059 217.336 166.136 229.777 157.599 245.073C155.456 248.912 153.572 252.953 151.964 257.156C142.99 281.71 123.941 295.903 107.397 313.732C103.136 318.573 98.3762 323.716 97.8767 331.279C97.0963 337.627 101.888 342.769 106.203 345.934C112.735 350.944 116.738 353.807 116.738 353.807Z" fill="#2A03CC"/>
<path d="M124.676 353.345C116.42 351.565 106.649 344.304 103.387 334.622C99.626 323.131 110.411 314.354 117.676 307.704C133.213 292.88 149.258 279.27 156.375 256.648C158.049 252.322 159.971 248.143 162.126 244.14C170.757 228.317 184.187 215.546 194.332 200.618C200.848 191.539 208.114 176.724 196.587 168.859C179.544 157.369 153.979 150.107 153.667 122.107C153.667 118.339 153.667 114.572 153.667 110.871C153.667 106.717 153.667 102.63 153.448 98.6268C151.716 83.8777 142.437 73.2916 133.159 63.6189C122.881 52.43 101.078 47.6078 104.339 28.8371C106.93 14.8885 119.682 3.69954 130.459 -0.840088C121.687 8.57824 107.149 15.7927 106.4 31.8321C106.15 37.2759 109.662 41.2504 113.166 44.5374C130.459 59.6632 152.512 71.7658 156.453 98.608C156.656 102.639 156.671 106.727 156.671 110.852C156.671 114.553 156.671 118.302 156.671 122.078C157.499 149.175 182.307 156.728 199.1 167.625C209.128 173.973 205.343 187.291 199.6 196.059C189.072 212.391 174.76 225.906 165.575 242.586C163.267 246.738 161.304 251.154 159.715 255.772C155.235 266.829 150.225 277.716 142.203 286.485C129.67 301.008 110.622 308.872 105.861 329.743C104.355 336.402 109.872 341.544 114.118 344.991C120.696 350.303 124.676 353.345 124.676 353.345Z" fill="#2A03CC"/>
<path d="M132.572 353.097C124.19 351.214 115.669 343.387 111.408 334.317C107.147 324.899 115.918 316.469 121.935 310.724C138.479 294.393 157.052 280.774 164.2 255.674C165.714 250.992 167.623 246.511 169.897 242.3C178.941 225.347 193.363 211.606 203.89 194.87C209.15 186.393 214.167 173.697 204.67 166.737C188.087 154.936 163.545 148.909 161.594 122.085C161.516 118.318 161.516 114.551 161.516 110.868C161.575 106.781 161.445 102.693 161.125 98.6242C157.27 69.3616 131.471 58.474 114.662 40.325C111.4 36.6989 109.402 30.9067 111.907 25.802C117.425 14.2834 127.452 2.78364 137.722 -0.541016C127.944 8.87728 105.891 22.449 117.674 38.7804C132.712 59.3499 160.283 68.7306 164.091 98.596C164.404 102.666 164.531 106.753 164.473 110.84C164.473 114.541 164.473 118.29 164.598 122.038C167.049 148.249 190.858 153.994 207.402 165.494C216.423 171.842 212.412 184.246 207.402 192.722C195.556 212.237 178.216 227.485 169.624 248.064C168.182 251.563 166.91 255.161 165.816 258.839C158.527 283.779 138.971 295.872 122.684 312.212C118.174 316.752 113.913 321.894 113.413 328.845C112.633 335.504 117.674 340.948 122.107 344.357C128.631 349.923 132.572 353.097 132.572 353.097Z" fill="#2A03CC"/>
<path d="M140.436 353.004C131.711 350.659 121.434 341.881 118.679 330.994C116.674 323.732 121.941 317.384 126.951 313.146C146.749 294.695 167.304 278.364 173.727 248.828C175.159 245.406 176.778 242.103 178.573 238.939C180.375 235.708 182.334 232.534 184.34 229.36C195.616 211.211 211.411 198.506 217.17 177.032C219.176 169.168 213.159 164.026 207.899 160.701C192.861 151.932 172.306 144.69 169.559 122.086C169.341 118.318 169.325 114.617 169.325 110.916C169.325 106.762 169.325 102.674 169.115 98.6717C165.049 70.0117 140.241 58.8227 123.697 40.975C119.936 36.7367 117.181 30.6902 119.936 24.6436C125.453 13.4546 134.973 3.16978 144.751 -0.164307C137.229 7.09723 127.958 12.541 122.948 23.4286C118.937 32.1971 125.453 40.0614 131.22 45.2038C147.748 60.2637 168.576 72.6206 172.064 98.5963C172.26 102.627 172.275 106.715 172.275 110.84C172.275 114.542 172.322 118.281 172.595 121.982C176.325 147.346 199.908 150.67 215.672 163.423C224.443 170.684 219.183 182.476 214.166 190.34C202.132 210.307 185.026 226.356 176.895 247.557C175.537 251.157 174.359 254.853 173.368 258.623C170.309 268.983 165.291 277.761 158.775 285.626C146.492 300.751 125.219 306.798 121.434 329.185C120.435 335.533 125.944 340.073 130.018 344C136.495 349.746 140.436 353.004 140.436 353.004Z" fill="#2A03CC"/>
<path d="M148.287 352.959C139.461 350.359 128.934 341.581 126.437 330.355C124.681 323.395 129.441 317.951 133.702 313.402C150.496 296.449 172.049 284.365 178.183 257.834C179.136 253.822 180.331 249.9 181.757 246.099C190.302 223.626 208.766 206.542 221.174 184.55C234.955 160.062 206.885 153.394 193.861 145.53C183.084 138.871 175.819 125.563 177.122 110.833C177.122 106.679 177.122 102.592 176.927 98.589C176.068 85.959 168.803 76.277 161.78 67.5085C150.254 53.5977 126.663 47.5417 127.943 26.6707C128.723 14.2668 141.724 3.98201 151.502 0.355957C143.699 8.22025 132.703 13.664 129.948 26.6707C128.692 32.7173 132.204 37.2569 135.466 41.1938C151.76 58.7401 176.318 70.2304 179.892 98.589C180.072 102.611 180.08 106.708 180.08 110.833C178.074 140.689 205.395 147.64 222.688 159.742C231.21 165.789 227.198 177.891 222.438 185.755C210.218 206.852 192.222 224.041 184.2 246.372C182.863 250.151 181.752 254.042 180.876 258.013C174.578 287.096 149.762 298.285 132.968 317.65C125.446 326.126 129.964 338.52 137.861 343.757C144.385 349.672 148.287 352.959 148.287 352.959Z" fill="#2A03CC"/>
<path d="M156.233 352.921C147.751 350.651 138.979 341.882 134.718 332.2C131.964 325.852 136.225 319.495 139.728 315.247C155.515 297.4 178.825 287.115 184.811 260.291C185.919 255.405 187.274 250.605 188.868 245.919C196.774 223.315 213.622 206.974 225.944 185.802C230.455 177.937 236.222 167.05 229.206 159.788C220.684 151.02 210.407 148.599 200.886 142.242C191.108 135.894 184.342 124.093 184.935 110.879C184.935 106.725 184.935 102.638 184.764 98.6351C181.338 68.4964 154.524 58.1363 138.23 38.2071C135.226 34.2702 132.97 29.1278 135.226 23.9854C139.986 13.7006 149.007 3.71714 158.036 1.29663C150.513 8.55817 140.243 14.002 137.746 26.1045C136.49 32.1511 140.002 36.9921 143.513 40.929C160.283 58.4942 184.342 69.9374 187.729 98.6068C187.885 102.628 187.885 106.716 187.893 110.851C187.355 139.19 213.926 144.333 230.72 156.737C237.743 162.181 235.48 172.465 231.5 179.727C220.224 200.598 204.187 216.873 194.823 237.669C193.256 241.146 191.907 244.76 190.788 248.481C187.62 262.297 183.609 275.916 174.08 286.503C162.047 299.811 145.261 306.469 137.738 324.317C134.984 331.277 139.994 338.228 144.442 342.259C151.645 349.106 156.233 352.921 156.233 352.921Z" fill="#2A03CC"/>
<path d="M164.121 352.92C155.021 350.095 144.244 340.676 141.989 328.875C140.99 323.733 143.995 319.796 146.749 316.17C162.536 297.72 186.353 287.736 192.323 260.385C193.159 255.603 194.233 250.885 195.538 246.258C202.078 223.908 217.88 207.021 230.203 187.61C236.719 177.928 245.99 161.597 233.714 153.13C217.67 142.544 193.361 137.119 192.885 110.804C192.729 106.726 192.729 102.638 192.596 98.6169C190.606 74.7886 172.307 62.3847 157.269 49.0766C151.026 43.3315 142.98 38.1891 142.73 28.8085C142.481 16.4046 155.014 5.51704 164.284 2.19238C153.008 10.0567 136.191 27.3015 152.251 42.1165C169.794 58.1276 193.353 70.249 195.562 98.6263C195.679 102.648 195.679 106.735 195.921 110.776C196.366 125.92 206.643 135.602 217.17 141.348C225.692 146.189 238.475 147.394 240.48 158.301C245.74 185.529 218.676 202.162 207.4 224.85C204.551 230.346 201.966 236.034 199.659 241.888C198.565 244.789 197.673 247.794 196.99 250.873C195.616 269.926 185.846 284.148 172.798 295.337C162.521 304.416 150.745 310.462 145.485 324.373C142.73 331.333 147.99 337.983 152.274 342.268C159.532 349.078 164.121 352.92 164.121 352.92Z" fill="#2A03CC"/>
</svg>
