<?xml version="1.0" encoding="utf-8"?><svg xmlns="http://www.w3.org/2000/svg" xmlns:xlink="http://www.w3.org/1999/xlink"><symbol viewBox="0 0 48 52" id="advantages-1" xmlns="http://www.w3.org/2000/svg"><path d="M46.4 25.04H32.832V11.664c0-.704-.576-1.28-1.28-1.28h-2.944V1.616c0-.704-.576-1.28-1.28-1.28H5.824c-.704 0-1.28.576-1.28 1.28v8.832H1.6c-.704 0-1.28.576-1.28 1.28v38.72c0 .704.576 1.28 1.28 1.28h44.8c.704 0 1.28-.576 1.28-1.28V26.32c-.064-.704-.64-1.28-1.28-1.28zM7.104 2.832h19.008V21.84H7.104V2.832zM2.88 12.944h1.664V23.12c0 .704.576 1.28 1.28 1.28h21.504c.704 0 1.28-.576 1.28-1.28V12.944h1.664v36.224h-7.936v-7.424c0-.704-.576-1.28-1.28-1.28h-8.96c-.704 0-1.28.576-1.28 1.28v7.424H2.88V12.944zm10.496 36.224v-6.144h6.4v6.144h-6.4zm31.744 0H32.832V27.6H45.12v21.568z"/><path d="M23.425 10.704h-5.568V5.136c0-.704-.576-1.28-1.28-1.28-.704 0-1.28.576-1.28 1.28v5.568H9.73c-.704 0-1.28.576-1.28 1.28 0 .704.576 1.28 1.28 1.28h5.568v5.568c0 .704.576 1.28 1.28 1.28.704 0 1.28-.576 1.28-1.28V13.2h5.568c.704 0 1.28-.576 1.28-1.28 0-.704-.576-1.216-1.28-1.216zM6.53 30.8h.832c.704 0 1.28-.576 1.28-1.28 0-.704-.576-1.28-1.28-1.28H6.53c-.704 0-1.28.576-1.28 1.28 0 .768.576 1.28 1.28 1.28zm5.887 0h1.664c.704 0 1.28-.576 1.28-1.28 0-.704-.576-1.28-1.28-1.28h-1.664c-.704 0-1.28.576-1.28 1.28 0 .768.576 1.28 1.28 1.28zm6.719 0h1.663c.704 0 1.28-.576 1.28-1.28 0-.704-.576-1.28-1.28-1.28h-1.663c-.704 0-1.28.576-1.28 1.28 0 .768.575 1.28 1.28 1.28zm6.656 0h.832c.704 0 1.28-.576 1.28-1.28 0-.704-.576-1.28-1.28-1.28h-.832c-.704 0-1.28.576-1.28 1.28.064.768.64 1.28 1.28 1.28zm10.433 3.52h.832c.704 0 1.28-.576 1.28-1.28 0-.704-.576-1.28-1.28-1.28h-.832c-.704 0-1.28.576-1.28 1.28 0 .704.576 1.28 1.28 1.28zm4.605 0h.833c.704 0 1.28-.576 1.28-1.28 0-.704-.576-1.28-1.28-1.28h-.832c-.704 0-1.28.576-1.28 1.28.064.704.576 1.28 1.28 1.28zm-4.605 6.4h.832c.704 0 1.28-.576 1.28-1.28 0-.704-.576-1.28-1.28-1.28h-.832c-.704 0-1.28.576-1.28 1.28 0 .768.576 1.28 1.28 1.28zm4.605 0h.833c.704 0 1.28-.576 1.28-1.28 0-.704-.576-1.28-1.28-1.28h-.832c-.704 0-1.28.576-1.28 1.28.064.768.576 1.28 1.28 1.28zM7.362 34.832H6.53c-.704 0-1.28.576-1.28 1.28 0 .704.576 1.28 1.28 1.28h.832c.704 0 1.28-.576 1.28-1.28 0-.704-.576-1.28-1.28-1.28zm5.055 2.496h1.664c.704 0 1.28-.576 1.28-1.28 0-.704-.576-1.28-1.28-1.28h-1.664c-.704 0-1.28.576-1.28 1.28 0 .704.576 1.28 1.28 1.28zm6.719 0h1.663c.704 0 1.28-.576 1.28-1.28 0-.704-.576-1.28-1.28-1.28h-1.663c-.704 0-1.28.576-1.28 1.28 0 .704.575 1.28 1.28 1.28zm6.656 0h.832c.704 0 1.28-.576 1.28-1.28 0-.704-.576-1.28-1.28-1.28h-.832c-.704 0-1.28.576-1.28 1.28 0 .704.64 1.28 1.28 1.28z"/></symbol><symbol viewBox="0 0 48 51" id="advantages-2" xmlns="http://www.w3.org/2000/svg"><path d="M18.073 49.607a2.388 2.388 0 001.72.786c1.432 0 2.088-.675 2.935-2.091.758-1.27 1.66-3.79 1.658-8.595-.023-3.223.797-4.915 1.724-6.523l.12-.219c.851-1.533 1.586-2.856 1.616-6.107l-.008-.526c-.088-2.367-.965-4.047-2.77-5.295-1.437-.97-3.445-1.505-5.654-1.505h-.084c-1.755 0-3.604.36-4.946.957-1.053-.472-2.434-.796-3.896-.916a1.539 1.539 0 00-.112-.004l-2.334.03a1.21 1.21 0 00-.12.009c-1.66.19-3.12.685-4.228 1.438C1.896 22.282 1.017 23.96.93 26.342c-.004.189-.007.359-.007.525.024 3.227.792 4.613 1.605 6.08l.143.258c.878 1.52 1.734 3.276 1.71 6.51-.004 4.795.897 7.314 1.656 8.59.854 1.418 1.42 2.087 2.938 2.087 1.475 0 2.349-1.258 2.449-2.479.056-.575.066-1.23.076-1.92.025-1.539.055-3.452.642-5.434.239-.771.508-1.645 1.012-2.406.255-.386.819-.795 1.36-.795.151 0 .608 0 1.081.762.495.8.796 1.674 1.044 2.49.575 1.932.824 4.169.666 5.982-.114 1.318.144 2.332.77 3.015zM14.514 34.97c-1.285 0-2.601.73-3.354 1.865-.692 1.048-1.03 2.142-1.303 3.02l-.023.076c-.665 2.246-.698 4.342-.724 6.024-.01.67-.02 1.247-.069 1.745-.01.123-.075.287-.067.302-.154 0-.224-.008-.24-.008h-.005c-.072-.048-.24-.25-.641-.915-.493-.829-1.32-2.887-1.318-7.353.03-3.826-1.033-5.988-2.017-7.694l-.135-.243c-.775-1.397-1.285-2.32-1.304-4.93 0-.139.001-.289.005-.441.06-1.591.576-2.609 1.724-3.397.771-.525 1.84-.88 3.091-1.03l2.216-.028c1.173.1 2.294.363 3.093.727l.416.184 3.092 1.641a1.195 1.195 0 001.121-2.113l-.603-.32a11.61 11.61 0 011.861-.158h.084c1.711 0 3.285.4 4.304 1.088.815.562 1.657 1.407 1.73 3.374l.007.461c-.025 2.634-.537 3.558-1.314 4.958l-.113.205c-.997 1.73-2.06 3.895-2.033 7.707.003 4.475-.826 6.532-1.319 7.359-.45.754-.62.889-.654.91a.65.65 0 01-.176.014c-.05-.04-.235-.337-.16-1.2.186-2.13-.089-4.634-.758-6.88-.298-.978-.661-2.026-1.3-3.059-.758-1.22-1.864-1.891-3.114-1.891z"/><path d="M45.697 25.97L34.09 16.797a1.2 1.2 0 00-.886-.249 1.2 1.2 0 00-.801.456l-1.088 1.408-5.007-3.867c2.24-3.863 1.336-8.893-2.291-11.698A8.964 8.964 0 0018.492.958a8.994 8.994 0 00-7.17 3.522c-3.051 3.948-2.319 9.643 1.63 12.697a8.975 8.975 0 005.529 1.889 8.98 8.98 0 006.37-2.625l5.003 3.864-1.09 1.41c-.4.518-.308 1.265.208 1.67l14.373 11.31a1.192 1.192 0 001.686-.209l1.5-1.944a4.655 4.655 0 00.937-3.467 4.643 4.643 0 00-1.771-3.105zM18.48 16.675a6.6 6.6 0 01-4.068-1.39 6.67 6.67 0 01-1.2-9.343 6.625 6.625 0 015.279-2.592c1.482 0 2.887.481 4.064 1.39a6.67 6.67 0 011.2 9.344 6.612 6.612 0 01-5.275 2.59zm15.075 2.748l1.384 1.092-2.172 2.813-1.386-1.089 2.174-2.816zM44.64 31.081l-.764.989-9.228-7.262L36.817 22l7.408 5.856c.483.372.793.915.871 1.526a2.29 2.29 0 01-.457 1.7z"/><path d="M17.689 6.146l-4.92 3.89 1.484 1.875 4.919-3.889-1.483-1.876zm5.024.562l-8.072 6.382 1.483 1.876 8.072-6.383-1.483-1.875z"/></symbol><symbol viewBox="0 0 49 49" id="advantages-3" xmlns="http://www.w3.org/2000/svg"><path d="M11.722 17.737l-.007.464c.022 3.064.75 4.381 1.522 5.774l.136.245c.825 1.422 1.63 3.064 1.607 6.103-.005 4.541.85 6.933 1.57 8.142.745 1.244 1.307 2.001 2.827 2.001 1.447 0 2.293-1.22 2.38-2.397.054-.547.064-1.167.074-1.823.023-1.446.052-3.245.608-5.115.22-.72.47-1.536.94-2.242.23-.35.74-.72 1.227-.72.132 0 .535 0 .962.69.47.755.758 1.604.978 2.331.541 1.812.775 3.913.627 5.616-.111 1.262.139 2.236.743 2.895.65.709 1.447.765 1.675.765 1.382 0 2.012-.645 2.828-2.003.718-1.207 1.574-3.597 1.57-8.145-.019-3.034.75-4.616 1.623-6.123l.12-.218c.77-1.393 1.498-2.71 1.527-5.784 0-.097-.003-.194-.006-.296l-.006-.206c-.083-2.226-.945-3.875-2.645-5.048-1.37-.923-3.28-1.431-5.443-1.431-1.659 0-3.4.335-4.674.896-1.001-.443-2.302-.746-3.672-.855-.037-.003-.071-.007-.11-.005l-2.203.029c-.041 0-.08.003-.12.007-1.575.18-2.964.65-4.025 1.365-1.69 1.169-2.552 2.819-2.633 5.088zm3.981-3.111c.722-.487 1.72-.817 2.89-.958l2.083-.027c1.096.094 2.145.338 2.892.677l.395.176 2.911 1.547a1.195 1.195 0 101.122-2.112l-.39-.208a11.504 11.504 0 011.62-.118c1.602 0 3.076.373 4.029 1.016.754.52 1.534 1.302 1.602 3.136l.01.427c-.023 2.458-.502 3.326-1.228 4.638l-.11.199c-.946 1.634-1.953 3.682-1.93 7.306.003 4.207-.772 6.138-1.231 6.91-.408.68-.564.813-.578.827a.542.542 0 01-.119.01c-.043-.061-.18-.325-.115-1.058.177-2.02-.085-4.392-.718-6.511-.266-.882-.62-1.917-1.236-2.906-.728-1.174-1.791-1.821-2.995-1.821-1.236 0-2.5.702-3.22 1.788-.662.997-.992 2.078-1.234 2.867l-.023.075c-.63 2.126-.663 4.109-.689 5.7-.01.63-.019 1.176-.066 1.656a.659.659 0 01-.06.21c-.06 0-.099-.003-.12-.003-.013 0-.019.002-.019.003-.07-.059-.226-.255-.572-.834-.462-.776-1.237-2.706-1.232-6.905.027-3.634-.982-5.682-1.918-7.29l-.126-.226c-.725-1.31-1.204-2.178-1.222-4.624l.006-.414c.067-1.857.847-2.64 1.591-3.153zm8.504-8.03c.66 0 1.196-.536 1.196-1.196V1.566a1.196 1.196 0 00-2.391 0V5.4c0 .66.535 1.196 1.195 1.196zm0 36.094c-.66 0-1.195.535-1.195 1.196v3.835a1.196 1.196 0 002.39 0v-3.835c0-.66-.535-1.195-1.195-1.195zm18.328-17.766c0 .66.535 1.195 1.196 1.195h3.834a1.195 1.195 0 100-2.391h-3.834c-.66 0-1.196.536-1.196 1.196zM5.245 26.12a1.195 1.195 0 100-2.392H1.41a1.196 1.196 0 000 2.392h3.835zM33.178 8.95a1.199 1.199 0 001.632-.446l1.898-3.333a1.195 1.195 0 10-2.077-1.184l-1.9 3.333a1.193 1.193 0 00.447 1.63zM13.68 40.76l-1.898 3.33a1.195 1.195 0 102.078 1.185l1.898-3.331a1.195 1.195 0 00-.447-1.63 1.194 1.194 0 00-1.63.446zm27.983-7.26a1.196 1.196 0 00-1.183 2.078l3.332 1.898a1.195 1.195 0 001.184-2.078L41.663 33.5zM3.705 14.631l3.332 1.898a1.196 1.196 0 001.184-2.078l-3.332-1.897a1.195 1.195 0 10-1.184 2.077zm37.132 1.389c.207 0 .417-.053.608-.167l3.3-1.955a1.197 1.197 0 00-1.219-2.058l-3.3 1.956a1.196 1.196 0 00.61 2.224zM7.124 33.424l-3.3 1.955a1.196 1.196 0 001.219 2.058l3.299-1.955a1.196 1.196 0 00-1.218-2.058zm26.266 7.124a1.197 1.197 0 00-.418 1.639l1.954 3.297a1.196 1.196 0 102.057-1.219l-1.954-3.298a1.198 1.198 0 00-1.638-.419zM13.344 9.082a1.195 1.195 0 102.057-1.22l-1.954-3.297a1.196 1.196 0 00-2.057 1.22l1.954 3.297z"/></symbol><symbol viewBox="0 0 48 49" id="advantages-4" xmlns="http://www.w3.org/2000/svg"><path d="M1.684 35.76c.018-.003 1.649-.26 3.456-.104.072.574.114 1.197.108 1.902 0 4.709.885 7.189 1.63 8.445.844 1.398 1.404 2.058 2.902 2.058 1.458 0 2.325-1.243 2.427-2.453.055-.565.066-1.206.076-1.885.024-1.509.054-3.387.612-5.269l.021-.074c.232-.75.495-1.601.984-2.34.249-.375.794-.773 1.317-.773.144 0 .584 0 1.042.738.483.783.779 1.639 1.023 2.437.564 1.897.808 4.09.653 5.864-.115 1.3.14 2.3.76 2.977a2.36 2.36 0 001.703.778h.002c1.413 0 2.06-.664 2.9-2.062.745-1.25 1.632-3.73 1.628-8.448-.004-.674.036-1.268.1-1.819a72.875 72.875 0 011.983-.045l-1.517 2.565a1.194 1.194 0 001.03 1.803c.407 0 .805-.209 1.03-.587l2.228-3.767c3.455.069 8.148.349 13.053 1.2a1.196 1.196 0 10.41-2.356c-4.463-.775-8.705-1.093-12.066-1.206l1.83-3.092c.448.133.91.208 1.38.208.407 0 .818-.052 1.223-.156a4.869 4.869 0 002.997-2.25l5.65-9.547.364.216 1.217-2.058-2.202-1.303 1.167-1.975 1.607.953 1.217-2.058-7.96-4.713-1.218 2.058 1.608.952-1.167 1.974-2.208-1.304-1.216 2.058.365.215-5.648 9.547a4.851 4.851 0 00-.531 3.706 4.85 4.85 0 001.298 2.259l-2.52 4.258a82.9 82.9 0 00-2.848.033c.29-.804.652-1.493 1.037-2.159l.115-.206c.836-1.51 1.56-2.813 1.588-6.017 0-.157-.001-.322-.005-.517-.085-2.328-.95-3.983-2.73-5.215-1.416-.953-3.393-1.48-5.561-1.48h-.08c-1.715 0-3.525.35-4.857.937-1.034-.462-2.39-.78-3.823-.896a.763.763 0 00-.113-.004l-2.288.032c-.04 0-.078.003-.117.007-1.63.184-3.068.67-4.168 1.413-1.77 1.22-2.633 2.874-2.72 5.215-.005.185-.006.353-.006.518.023 3.172.777 4.534 1.576 5.978l.143.258c.355.611.7 1.27.988 2.043a18.294 18.294 0 00-3.264.174 1.193 1.193 0 00-.986 1.37 1.2 1.2 0 001.371.989zM42.12 11.792l.63.374-1.168 1.972-.63-.372 1.168-1.974zm-9.877 12.49l5.65-9.547 1.101.651 3.207 1.901-.532.9-1.358-.804-1.216 2.059 1.356.802-.684 1.157-1.355-.805-1.221 2.056 1.359.806-.784 1.325-1.356-.804-1.22 2.056 1.358.806a2.486 2.486 0 01-1.527 1.141 2.472 2.472 0 01-1.896-.272 2.48 2.48 0 01-1.152-1.535 2.472 2.472 0 01.27-1.894zm-27.989.224c.058-1.553.562-2.548 1.679-3.317.76-.514 1.805-.862 3.03-1.006l2.17-.03c1.148.1 2.245.356 3.023.709l.415.187 3.032 1.606a1.198 1.198 0 001.617-.496 1.197 1.197 0 00-.498-1.617l-.531-.281a11.282 11.282 0 011.76-.145h.079c1.674 0 3.214.39 4.214 1.064.794.55 1.616 1.375 1.687 3.309.004.158.004.306.004.439-.022 2.584-.526 3.491-1.289 4.865l-.104.19c-.98 1.7-2.025 3.826-2.001 7.576.004 4.386-.808 6.403-1.29 7.212-.438.729-.602.864-.63.883a.707.707 0 01-.159.014c-.056-.052-.211-.36-.141-1.153.183-2.09-.088-4.554-.746-6.765-.294-.96-.653-1.989-1.279-3.004-.75-1.206-1.842-1.87-3.075-1.87-1.268 0-2.567.722-3.31 1.84-.68 1.028-1.01 2.099-1.275 2.96l-.026.085c-.656 2.208-.689 4.268-.715 5.925-.012.655-.02 1.22-.068 1.704a.742.742 0 01-.086.279c-.106-.002-.161-.008-.18-.008-.007 0-.009.002-.009.003-.07-.053-.235-.252-.62-.89-.482-.812-1.29-2.83-1.292-7.207a15.963 15.963 0 00-.264-3.096 1.154 1.154 0 00-.041-.221c-.375-1.832-1.04-3.142-1.676-4.243l-.133-.242c-.758-1.368-1.26-2.273-1.277-4.828 0-.135.001-.28.005-.43zm14.607-12.453l-4.86-3.508a1.195 1.195 0 10-1.4 1.938l4.86 3.51c.212.152.458.224.7.224a1.196 1.196 0 00.7-2.164z"/><path d="M21.558.743c-.647.13-1.067.76-.936 1.408l1.945 9.729a1.194 1.194 0 001.406.937 1.195 1.195 0 00.939-1.407l-1.946-9.73a1.198 1.198 0 00-1.408-.937zm10.64 2.087l-3.954 7.785a1.196 1.196 0 102.132 1.084l3.955-7.786a1.197 1.197 0 00-2.133-1.082z"/></symbol><symbol viewBox="0 0 23 20" id="arrow-r" xmlns="http://www.w3.org/2000/svg"><path d="M1.588 11.099h18.477l-7.075 6.912a.967.967 0 00-.032 1.343.91.91 0 001.31.033l8.08-7.894c.35-.36.543-.836.543-1.344 0-.507-.193-.985-.56-1.36L14.268.912a.91.91 0 00-1.31.033.967.967 0 00.032 1.343L20.095 9.2H1.588a.939.939 0 00-.926.95c0 .524.415.95.926.95z"/></symbol><symbol viewBox="0 0 28 8" id="arrow-r-long" xmlns="http://www.w3.org/2000/svg"><path d="M27.354 4.354a.5.5 0 000-.708L24.172.464a.5.5 0 10-.707.708L26.293 4l-2.828 2.828a.5.5 0 10.707.708l3.182-3.182zM0 4.5h27v-1H0v1z"/></symbol><symbol viewBox="0 0 22 24" id="basket" xmlns="http://www.w3.org/2000/svg"><g clip-path="url(#gclip0)"><path d="M10.363 18.443a2.046 2.046 0 00-2.045 2.042 2.046 2.046 0 004.09 0 2.046 2.046 0 00-2.045-2.042zm6.134 0a2.046 2.046 0 00-2.045 2.042 2.046 2.046 0 004.089 0 2.046 2.046 0 00-2.044-2.042zm3.978-8.199L7.413 6.891a.614.614 0 00-.75.73L8.67 16.4h-.786L5.482 5.895a.613.613 0 00-.474-.464l-4.27-.882A.614.614 0 00.489 5.75l3.885.802L6.797 17.15a.613.613 0 00.598.477h12.07a.615.615 0 00.607-.53l.858-6.175a.613.613 0 00-.455-.678zm-8.14 3.91a.613.613 0 01-1.227 0v-2.696a.613.613 0 011.227 0v2.696zm2.625 0a.613.613 0 01-1.227 0v-1.88a.613.613 0 011.227 0v1.88zm2.625 0a.613.613 0 01-1.227 0v-1.226a.613.613 0 011.227 0v1.226z"/></g><path fill-rule="evenodd" clip-rule="evenodd" d="M16.268 4.568a2.996 2.996 0 00-1.693-.523c-.627 0-1.21.193-1.693.523-.28-.843-.492-1.752-.492-2.383C12.39.98 13.37 0 14.575 0s2.185.98 2.185 2.185c0 .631-.212 1.54-.492 2.383zm-4.722 2.274l.024.006v-.011l-.024.005zm4.972 1.217c-1.333-.33-2.766-.681-4.129-1.013a2.185 2.185 0 114.129 1.013zm4.436 1.103c-.866-.217-2.155-.538-3.618-.9a2.995 2.995 0 00.243-1.425c.87.18 1.762.45 2.308.765.596.344.969.928 1.067 1.56zM9.869 6.439c-.36-.086-.706-.167-1.03-.243a2.19 2.19 0 01-.376-2.667 2.188 2.188 0 013.147-.7c.098.738.338 1.599.61 2.353a3.01 3.01 0 00-.449.774c-.628.113-1.305.278-1.902.483zm10.124.075a3.43 3.43 0 01-.217.114c-.696-.295-1.587-.526-2.397-.672a3.01 3.01 0 00-.449-.774c.262-.727.494-1.553.599-2.273.095-.067.189-.128.278-.18a2.188 2.188 0 012.986.8 2.188 2.188 0 01-.8 2.985z"/><defs><clipPath id="gclip0"><path transform="translate(0 3.064)" d="M0 0h20.936v20.936H0z"/></clipPath></defs></symbol><symbol viewBox="0 0 202 202" id="call" xmlns="http://www.w3.org/2000/svg"><path d="M186.053 133.001a115.407 115.407 0 01-36.233-5.762 15.542 15.542 0 00-15.766 3.338l-22.943 17.309A128.13 128.13 0 0154.104 90.89L70.956 68.5A16.087 16.087 0 0074.9 52.233a115.513 115.513 0 01-5.794-36.286C69.106 7.14 61.966 0 53.158 0h-37.21C7.14 0 0 7.14 0 15.947.117 118.653 83.347 201.883 186.053 202c8.807 0 15.947-7.14 15.947-15.947v-37.104c0-8.808-7.14-15.948-15.947-15.948zM196.685 85.053a5.316 5.316 0 01-5.316-5.316c-.047-38.147-30.959-69.059-69.106-69.106a5.316 5.316 0 010-10.631c44.018.047 79.69 35.719 79.737 79.737a5.316 5.316 0 01-5.315 5.316zm-42.527 0a5.316 5.316 0 01-5.316-5.316c0-14.68-11.9-26.579-26.579-26.579a5.316 5.316 0 110-10.632c20.551 0 37.211 16.66 37.211 37.21a5.316 5.316 0 01-5.316 5.317z"/></symbol><symbol viewBox="0 0 344.96 344.96" id="check" xmlns="http://www.w3.org/2000/svg"><g data-name="Слой 2"><path d="M321.85 86.24l-40-23.11-23.1-40H212.5L172.48 0l-40 23.11H86.24l-23.11 40-40 23.1v46.21L0 172.48l23.11 40v46.21l40 23.11 23.11 40h46.21l40 23.1 40-23.11h46.21l23.11-40 40-23.11V212.5l23.11-40-23.11-40V86.24zM156.91 243.07a16.79 16.79 0 01-23.34 0l-50.45-50.44a16.19 16.19 0 010-22.89l13.35-13.35a16.19 16.19 0 0122.89 0l25.87 25.87 80.34-80.35a16.19 16.19 0 0122.89 0l13.35 13.35a16.19 16.19 0 010 22.89z" data-name="Capa 1"/></g></symbol><symbol viewBox="0 0 30 30" id="document" xmlns="http://www.w3.org/2000/svg"><path d="M26.207 3.976h-2.53v-2.53A1.45 1.45 0 0022.23 0H3.797a1.45 1.45 0 00-1.445 1.446v23.132c0 .795.65 1.446 1.445 1.446h2.53v2.53c0 .795.65 1.446 1.446 1.446h12.29c.794 0 1.919-.446 2.497-.99l4.04-3.802c.579-.545 1.052-1.642 1.052-2.437V5.421a1.45 1.45 0 00-1.445-1.445zM6.327 5.422V24.94h-2.53a.366.366 0 01-.361-.362V1.446c0-.196.165-.362.361-.362h18.434c.196 0 .362.166.362.362v2.53H7.773a1.45 1.45 0 00-1.446 1.446zm19.529 18.996l-4.039 3.802c-.082.077-.19.154-.31.226V25.12c0-.248.1-.471.266-.637a.9.9 0 01.638-.266h3.617a1.519 1.519 0 01-.172.201zm.712-1.647c0 .107-.02.232-.05.361h-4.107a1.992 1.992 0 00-1.988 1.988v3.752a1.89 1.89 0 01-.361.044H7.773a.366.366 0 01-.361-.362V5.422c0-.196.165-.362.361-.362h18.434c.196 0 .361.166.361.362V22.77z"/><path d="M22.231 9.036H11.75a.542.542 0 100 1.084h10.482a.542.542 0 100-1.084zm0 7.229H11.75a.542.542 0 100 1.084h10.482a.542.542 0 100-1.084zm-4.699 3.615H11.75a.542.542 0 100 1.084h5.783a.542.542 0 100-1.084zm4.699-7.23H11.75a.542.542 0 100 1.085h10.482a.542.542 0 100-1.084z"/></symbol><symbol viewBox="0 0 11 19" id="fb" xmlns="http://www.w3.org/2000/svg"><path d="M10.249.004L7.785 0C5.017 0 3.228 1.835 3.228 4.676v2.156H.751a.387.387 0 00-.388.387v3.124c0 .214.174.388.388.388h2.477v7.882c0 .214.173.387.387.387h3.233a.387.387 0 00.387-.387V10.73h2.897a.387.387 0 00.387-.388l.001-3.124a.388.388 0 00-.387-.387H7.235V5.004c0-.878.21-1.324 1.354-1.324h1.66a.387.387 0 00.386-.388v-2.9a.388.388 0 00-.386-.388z"/></symbol><symbol viewBox="0 0 19 19" id="instagram" xmlns="http://www.w3.org/2000/svg"><path d="M13.063 0H5.936A5.938 5.938 0 000 5.938v7.125A5.938 5.938 0 005.938 19h7.125A5.938 5.938 0 0019 13.062V5.939A5.938 5.938 0 0013.062 0zm4.156 13.063a4.16 4.16 0 01-4.157 4.156H5.939a4.16 4.16 0 01-4.157-4.157V5.939A4.16 4.16 0 015.938 1.78h7.125a4.16 4.16 0 014.156 4.157v7.125z"/><path d="M9.5 4.75a4.75 4.75 0 100 9.5 4.75 4.75 0 000-9.5zm0 7.719A2.973 2.973 0 016.531 9.5 2.972 2.972 0 019.5 6.531 2.972 2.972 0 0112.469 9.5 2.973 2.973 0 019.5 12.469zm5.106-7.443a.633.633 0 100-1.265.633.633 0 000 1.265z"/></symbol><symbol viewBox="0 0 34 40" id="location" xmlns="http://www.w3.org/2000/svg"><path d="M16.934 21.198c.24 0 .464-.115.604-.31.697-.964 6.8-9.539 6.8-13.348 0-4.082-3.321-7.404-7.403-7.404-4.083 0-7.404 3.322-7.404 7.404 0 3.81 6.104 12.384 6.8 13.349.14.194.364.309.603.309zm.002-11.025a2.705 2.705 0 01-2.701-2.701 2.705 2.705 0 012.701-2.702c1.488 0 2.7 1.212 2.7 2.702a2.704 2.704 0 01-2.7 2.701z"/><path d="M8.61 10.413a.93.93 0 10-1.03-1.55 16.971 16.971 0 00-3.706 3.345.92.92 0 00-.32.379c-.006.013-.009.027-.013.04A16.882 16.882 0 00.008 22.97a16.84 16.84 0 003.715 10.562.954.954 0 00.097.123c3.106 3.804 7.83 6.239 13.114 6.239 5.207 0 9.87-2.366 12.977-6.076a16.843 16.843 0 003.946-10.85 16.92 16.92 0 00-3.775-10.644.891.891 0 00-.136-.164 16.947 16.947 0 00-3.393-3.118.93.93 0 10-1.059 1.53c.824.57 1.576 1.218 2.26 1.924-1.35.542-2.798.984-4.325 1.315a.93.93 0 10.393 1.82c1.846-.4 3.582-.96 5.19-1.651a15.068 15.068 0 012.956 8.06h-8.702c-.026-1.3-.12-2.594-.288-3.851a.93.93 0 10-1.845.247c.158 1.176.247 2.385.272 3.603H11.9c.034-1.606.177-3.194.44-4.728a.931.931 0 10-1.835-.315 34.017 34.017 0 00-.466 5.043H1.897a15.03 15.03 0 012.848-7.921 28.551 28.551 0 005.245 1.593.933.933 0 001.098-.727.93.93 0 00-.727-1.097 27.201 27.201 0 01-4.369-1.266 15.142 15.142 0 012.617-2.209zm20.347 21.62c-2.005-.854-4.19-1.486-6.495-1.878.452-1.995.726-4.098.797-6.254h8.708a14.986 14.986 0 01-3.01 8.133zm-8.34-2.142a34.981 34.981 0 00-3.898-.224c-1.366 0-2.711.088-4.03.243a31.447 31.447 0 01-.784-6.009h9.492a31.471 31.471 0 01-.78 5.99zm-3.683 8.143c-.258 0-.515-.007-.769-.02-1.26-1.774-2.269-3.916-2.991-6.29a32.92 32.92 0 013.545-.196c1.156 0 2.296.062 3.414.178-.724 2.387-1.738 4.541-3.006 6.323-.065 0-.128.005-.193.005zm-6.09-7.856a29.1 29.1 0 00-6.036 1.718A14.976 14.976 0 011.9 23.901h8.143c.071 2.164.347 4.276.801 6.277zM6.071 33.39a27.737 27.737 0 015.24-1.405c.61 2.08 1.424 4.008 2.424 5.704a15.058 15.058 0 01-7.664-4.299zm13.419 4.422c1.037-1.732 1.883-3.71 2.508-5.851 2.006.331 3.918.85 5.682 1.552a15.032 15.032 0 01-8.19 4.299z"/></symbol><symbol viewBox="0 0 22 40" id="phone" xmlns="http://www.w3.org/2000/svg"><path fill-rule="evenodd" clip-rule="evenodd" d="M18.497 39.167h-15a3.333 3.333 0 01-3.333-3.334V4.168A3.333 3.333 0 013.497.833h15a3.333 3.333 0 013.334 3.334v31.666a3.333 3.333 0 01-3.334 3.334zm1.667-35c0-.92-.747-1.667-1.667-1.667h-15c-.92 0-1.666.747-1.666 1.667V7.5h18.333V4.167zm0 5H1.831v21.667h18.333V9.166zm0 23.333H1.831v3.334c0 .92.746 1.666 1.666 1.666h15c.92 0 1.667-.746 1.667-1.666V32.5zm-9.167 4.167A1.667 1.667 0 1111 33.332a1.667 1.667 0 01-.002 3.335zm-5.833-25h1.667c.46 0 .833.373.833.833v1.667c0 .46-.372.833-.833.833H5.164a.833.833 0 01-.833-.833V12.5c0-.46.372-.833.833-.833zm0 5.833h1.667c.46 0 .833.373.833.834V20a.833.833 0 01-.833.834H5.164A.833.833 0 014.331 20v-1.666c0-.46.372-.834.833-.834zm0 5.834h1.667c.46 0 .833.372.833.833v1.666a.833.833 0 01-.833.834H5.164a.833.833 0 01-.833-.834v-1.666c0-.461.372-.834.833-.834zm5-11.667h1.667c.46 0 .833.373.833.833v1.667c0 .46-.372.833-.833.833h-1.667a.833.833 0 01-.833-.833V12.5c0-.46.372-.833.833-.833zm0 5.833h1.667c.46 0 .833.373.833.834V20a.833.833 0 01-.833.834h-1.667A.833.833 0 019.331 20v-1.666c0-.46.372-.834.833-.834zm0 5.834h1.667c.46 0 .833.372.833.833v1.666a.833.833 0 01-.833.834h-1.667a.833.833 0 01-.833-.834v-1.666c0-.461.372-.834.833-.834zm5-11.667h1.667c.46 0 .833.373.833.833v1.667c0 .46-.372.833-.833.833h-1.667a.833.833 0 01-.833-.833V12.5c0-.46.372-.833.833-.833zm0 5.833h1.667c.46 0 .833.373.833.834V20a.833.833 0 01-.833.834h-1.667a.833.833 0 01-.833-.834v-1.666c0-.46.372-.834.833-.834zM8.497 4.167h5a.833.833 0 110 1.667h-5a.833.833 0 110-1.667z"/></symbol><symbol viewBox="0 0 26 30" id="play" xmlns="http://www.w3.org/2000/svg"><path d="M26 15L0 0v30l26-15z"/></symbol><symbol viewBox="0 0 11 19" id="sliderArrow" xmlns="http://www.w3.org/2000/svg"><path d="M8.919 18.567L11 16.417 4.162 9.352 11 2.287 8.919.137 0 9.352l8.919 9.215z"/></symbol><symbol viewBox="0 0 16 16" id="telegram" xmlns="http://www.w3.org/2000/svg"><path d="M14.629 3.698l-2.012 9.618c-.152.679-.548.848-1.11.528l-3.066-2.29-1.48 1.442c-.163.166-.3.305-.616.305l.22-3.165 5.683-5.204c.247-.223-.054-.347-.384-.123L4.839 9.29l-3.024-.959c-.658-.208-.67-.667.137-.986L13.78 2.727c.548-.208 1.027.124.849.971z"/></symbol><symbol viewBox="0 0 16 16" id="viber" xmlns="http://www.w3.org/2000/svg"><path d="M8 1.335c-1.071.013-3.374.19-4.662 1.37-.958.948-1.292 2.35-1.331 4.084-.033 1.728-.072 4.973 3.058 5.856v1.346s-.02.538.337.648c.438.14.688-.275 1.105-.72l.778-.879c2.142.178 3.782-.232 3.97-.293.435-.139 2.883-.451 3.283-3.696.41-3.351-.2-5.463-1.301-6.418h-.007c-.332-.306-1.668-1.279-4.652-1.29 0 0-.222-.014-.578-.008zm.037.942a7.02 7.02 0 01.488.011c2.527.007 3.732.767 4.017 1.023.927.794 1.405 2.697 1.055 5.495-.332 2.713-2.317 2.885-2.685 3.002-.156.05-1.6.406-3.42.289 0 0-1.356 1.634-1.78 2.055-.067.074-.146.095-.196.085-.071-.018-.093-.107-.089-.229l.013-2.233c-2.655-.733-2.498-3.5-2.47-4.946.033-1.446.304-2.628 1.113-3.43 1.088-.982 3.043-1.115 3.953-1.122zm.2 1.446a.166.166 0 100 .332 3.136 3.136 0 012.242.883c.606.588.9 1.378.912 2.411 0 .092.074.167.167.167V7.51a.167.167 0 00.168-.165 3.588 3.588 0 00-1.009-2.646c-.66-.645-1.496-.977-2.48-.977zm-2.198.382a.523.523 0 00-.342.067H5.69a2.61 2.61 0 00-.637.523 1.003 1.003 0 00-.256.525.71.71 0 00.026.302l.01.006c.172.504.396.988.67 1.444a8.48 8.48 0 001.29 1.762l.015.022.024.017.015.018.017.015c.532.505 1.127.94 1.769 1.295.734.4 1.18.588 1.447.667v.004c.078.024.15.034.221.034.228-.016.444-.109.613-.262a2.53 2.53 0 00.517-.638v-.004c.128-.241.085-.469-.1-.623-.37-.323-.77-.61-1.195-.857-.285-.155-.574-.061-.69.095l-.25.315c-.129.156-.361.134-.361.134l-.007.004C7.093 8.527 6.63 6.772 6.63 6.772s-.022-.239.139-.36l.312-.252c.15-.122.254-.41.094-.695a7.498 7.498 0 00-.856-1.194.475.475 0 00-.28-.167zm2.486.495c-.221 0-.221.334.003.334A2.098 2.098 0 0110 5.572 1.94 1.94 0 0110.5 7a.168.168 0 00.167.165l.007.009a.169.169 0 00.167-.167c.015-.662-.191-1.218-.595-1.663C9.84 4.9 9.273 4.65 8.549 4.6h-.024zm.274.898c-.228-.006-.236.335-.01.341.55.029.816.306.851.877a.166.166 0 00.165.163h.007a.168.168 0 00.16-.178c-.039-.744-.445-1.164-1.166-1.202H8.8z"/></symbol><symbol viewBox="0 0 24 24" id="vk" xmlns="http://www.w3.org/2000/svg"><path d="M21.579 6.855c.14-.465 0-.806-.662-.806h-2.193c-.558 0-.813.295-.953.619 0 0-1.115 2.719-2.695 4.482-.51.513-.743.675-1.021.675-.139 0-.341-.162-.341-.627V6.855c0-.558-.161-.806-.626-.806H9.642c-.348 0-.558.258-.558.504 0 .528.79.65.871 2.138v3.228c0 .707-.127.836-.407.836-.743 0-2.551-2.73-3.624-5.853-.209-.607-.42-.852-.98-.852H2.752c-.627 0-.752.295-.752.619 0 .582.743 3.462 3.461 7.27 1.812 2.602 4.363 4.012 6.687 4.012 1.393 0 1.565-.313 1.565-.853v-1.966c0-.626.133-.752.574-.752.324 0 .882.164 2.183 1.417 1.486 1.486 1.732 2.153 2.567 2.153h2.192c.626 0 .939-.313.759-.931-.197-.615-.907-1.51-1.849-2.57-.512-.603-1.277-1.253-1.51-1.578-.325-.42-.231-.604 0-.976.001 0 2.672-3.761 2.95-5.04z"/></symbol><symbol viewBox="0 0 16 16" id="whatsapp" xmlns="http://www.w3.org/2000/svg"><path fill-rule="evenodd" clip-rule="evenodd" d="M12.269 3.755A5.947 5.947 0 008.035 2 5.994 5.994 0 002.05 7.985a5.98 5.98 0 00.799 2.992L2 14.077l3.173-.832c.877.477 1.86.728 2.86.728h.002a5.993 5.993 0 005.533-8.276 5.953 5.953 0 00-1.3-1.942zm-4.234 9.208h-.002c-.89 0-1.765-.24-2.532-.694l-.181-.108-1.883.494.502-1.835-.118-.188a4.965 4.965 0 01-.76-2.647 4.982 4.982 0 016.88-4.597c.604.25 1.152.618 1.613 1.081a4.946 4.946 0 011.455 3.52 4.982 4.982 0 01-4.974 4.974zm2.729-3.726c-.15-.075-.885-.436-1.022-.486-.137-.05-.236-.075-.336.074-.1.15-.387.486-.474.586-.087.1-.175.112-.324.038-.15-.075-.631-.233-1.203-.742a4.505 4.505 0 01-.832-1.036c-.087-.15-.009-.231.066-.306.068-.066.15-.174.224-.262.075-.087.1-.149.15-.249.05-.1.025-.187-.013-.262-.037-.075-.337-.811-.461-1.11-.121-.29-.244-.252-.336-.256a6.418 6.418 0 00-.286-.005.55.55 0 00-.4.186c-.137.15-.523.512-.523 1.248s.536 1.447.61 1.547c.075.1 1.055 1.61 2.555 2.258.358.154.636.246.853.315.358.114.684.098.942.06.287-.043.885-.362 1.01-.711.124-.35.124-.649.087-.711-.038-.063-.138-.101-.287-.176z"/></symbol></svg>