<svg width="48" height="49" viewBox="0 0 48 49" fill="none" xmlns="http://www.w3.org/2000/svg">
<path d="M1.68408 35.7598C1.70167 35.757 3.33261 35.5003 5.14008 35.6557C5.21182 36.2296 5.25402 36.8535 5.24839 37.5582C5.24839 42.2667 6.13314 44.7466 6.87863 46.0033C7.72189 47.4015 8.28241 48.0612 9.77973 48.0612C11.2384 48.0612 12.1055 46.8178 12.2068 45.6081C12.2617 45.0434 12.2729 44.4019 12.2835 43.7233C12.3067 42.214 12.3369 40.3362 12.8946 38.4542L12.9164 38.3803C13.1485 37.6306 13.4109 36.7789 13.8996 36.0397C14.1486 35.6649 14.6937 35.2675 15.2169 35.2675C15.3611 35.2675 15.8007 35.2675 16.2592 36.0053C16.7417 36.788 17.0378 37.644 17.2825 38.4422C17.8458 40.339 18.0899 42.5312 17.9352 44.3063C17.8198 45.606 18.0751 46.6068 18.6947 47.2826C19.3551 48.0049 20.166 48.0612 20.3981 48.0612H20.3995C21.8131 48.0612 22.4602 47.3966 23.2992 45.9991C24.0454 44.7494 24.9323 42.2695 24.928 37.5511C24.9238 36.8767 24.9639 36.2831 25.0272 35.7324C25.5111 35.7148 26.1827 35.6951 27.0105 35.6874L25.4942 38.2516C25.1573 38.8192 25.3458 39.5527 25.9148 39.8889C26.1054 40.0014 26.3156 40.0549 26.5231 40.0549C26.931 40.0549 27.3291 39.846 27.5534 39.4683L29.7815 35.7008C33.2375 35.7697 37.9299 36.0496 42.8354 36.9013C42.9057 36.9139 42.9739 36.9189 43.0414 36.9189C43.6132 36.9189 44.1168 36.5095 44.2188 35.9286C44.3313 35.2774 43.8959 34.6578 43.2447 34.5452C38.7816 33.7702 34.54 33.4516 31.1789 33.3391L33.0089 30.2474C33.4569 30.3803 33.9197 30.4549 34.3881 30.4549C34.796 30.4549 35.2067 30.4028 35.6118 30.2994C36.8785 29.9738 37.9425 29.1756 38.6093 28.0496L44.2588 18.5023L44.6232 18.7183L45.8399 16.6604L43.6378 15.3565L44.8053 13.3823L46.4123 14.3346L47.6291 12.2768L39.6691 7.56396L38.451 9.62181L40.0595 10.5741L38.892 12.5482L36.6843 11.2436L35.4676 13.3015L35.8334 13.5174L30.1852 23.0639C29.5177 24.1864 29.3293 25.5037 29.6535 26.7703C29.8771 27.6424 30.3279 28.4132 30.9518 29.0286L28.4326 33.287C27.2813 33.2814 26.317 33.2983 25.5835 33.3201C25.8747 32.5162 26.2362 31.827 26.6209 31.161L26.7362 30.9549C27.5724 29.4456 28.2954 28.1417 28.3243 24.9382C28.3243 24.7814 28.3228 24.6161 28.3186 24.4213C28.2335 22.0927 27.3692 20.4378 25.5891 19.2056C24.1727 18.2527 22.1964 17.7259 20.0275 17.7259H19.948C18.2334 17.7259 16.4231 18.0761 15.091 18.6627C14.0565 18.2013 12.7012 17.8827 11.2679 17.7674C11.2306 17.7632 11.1912 17.7618 11.1554 17.7632L8.86685 17.7948C8.82677 17.7948 8.78879 17.7976 8.75011 17.8019C7.11986 17.9861 5.68162 18.4721 4.58237 19.2155C2.81288 20.435 1.94923 22.0892 1.86272 24.4297C1.8571 24.6154 1.85569 24.7828 1.85569 24.9481C1.8789 28.1199 2.63283 29.4822 3.43248 30.9261L3.57525 31.1842C3.92971 31.7953 4.27573 32.4536 4.56268 33.2266C2.79459 33.1633 1.37745 33.3883 1.29868 33.401C0.647426 33.5065 0.206459 34.1204 0.312656 34.7717C0.418854 35.423 1.03565 35.8625 1.68408 35.7598ZM42.1187 11.7922L42.7489 12.1656L41.5814 14.1384L40.9512 13.7663L42.1187 11.7922ZM32.2423 24.2813L37.8919 14.7348L38.9933 15.386L42.1996 17.287L41.6679 18.1866L40.3105 17.3827L39.0938 19.4419L40.4498 20.2444L39.7655 21.4013L38.4109 20.5961L37.19 22.6525L38.5488 23.4585L37.7646 24.7828L36.4086 23.9789L35.1891 26.0353L36.5465 26.8406C36.2047 27.4124 35.6632 27.8175 35.0203 27.9821C34.3719 28.1495 33.6988 28.0524 33.1236 27.7099C32.5468 27.3709 32.1389 26.8252 31.9723 26.1753C31.8049 25.529 31.9012 24.8559 32.2423 24.2813ZM4.25323 24.5064C4.3109 22.9528 4.81516 21.9583 5.932 21.1889C6.69156 20.6755 7.73666 20.3274 8.96109 20.1832L11.1315 20.153C12.28 20.2521 13.3771 20.5088 14.1549 20.8619L14.5699 21.049L17.6018 22.6546C17.7804 22.7495 17.9724 22.7946 18.1609 22.7946C18.5892 22.7946 19.0042 22.5625 19.2187 22.1588C19.5274 21.575 19.3052 20.8513 18.7214 20.5419L18.1898 20.2606C18.7679 20.1684 19.3671 20.1164 19.9494 20.1164H20.0289C21.7034 20.1164 23.2429 20.5067 24.243 21.1798C25.037 21.7291 25.8585 22.5547 25.9295 24.4888C25.9338 24.647 25.9338 24.7954 25.9338 24.9277C25.9119 27.5116 25.4077 28.4195 24.6453 29.7931L24.5412 29.9837C23.5601 31.6828 22.5164 33.8089 22.5396 37.5589C22.5439 41.9446 21.7323 43.9617 21.2498 44.7705C20.8116 45.4998 20.6485 45.6355 20.6196 45.6538C20.6154 45.6552 20.5781 45.6651 20.4614 45.6679C20.4051 45.6158 20.2497 45.3078 20.32 44.5152C20.5029 42.4243 20.2321 39.9613 19.5738 37.7502C19.2799 36.7902 18.9212 35.7612 18.2952 34.7464C17.5455 33.5402 16.4533 32.8756 15.2197 32.8756C13.9517 32.8756 12.6527 33.5979 11.9107 34.7161C11.2292 35.7437 10.8994 36.8148 10.6349 37.6763L10.6089 37.7614C9.95345 39.9691 9.92039 42.029 9.89437 43.686C9.88241 44.3408 9.87397 44.9069 9.82615 45.3901C9.81912 45.485 9.77692 45.606 9.73964 45.6686C9.63415 45.6672 9.57859 45.6615 9.5596 45.6615C9.55257 45.6615 9.55116 45.663 9.55116 45.6644C9.48083 45.6109 9.31626 45.4119 8.93156 44.774C8.44909 43.9624 7.6403 41.9432 7.6389 37.5666C7.64874 36.3787 7.54255 35.3688 7.37516 34.4707C7.36813 34.3954 7.35476 34.3209 7.33367 34.2499C6.95881 32.4178 6.2949 31.1082 5.65771 30.0069L5.52479 29.7649C4.76663 28.397 4.26518 27.4919 4.2476 24.9368C4.2476 24.8025 4.24901 24.6569 4.25323 24.5064Z" fill="#D97014"/>
<path d="M18.8611 12.0528L14.0014 8.54471C13.4669 8.1586 12.7185 8.27816 12.3324 8.81408C11.9449 9.34999 12.0659 10.0969 12.6018 10.483L17.4616 13.9925C17.6733 14.1451 17.9187 14.2175 18.1607 14.2175C18.5313 14.2175 18.897 14.0459 19.1319 13.7217C19.518 13.1879 19.397 12.4389 18.8611 12.0528Z" fill="#D97014"/>
<path d="M21.5583 0.742526C20.9113 0.873339 20.4907 1.50209 20.6215 2.15053L22.5668 11.8799C22.6794 12.4475 23.1794 12.8399 23.7371 12.8399C23.8152 12.8399 23.8939 12.8329 23.9734 12.8167C24.6204 12.6873 25.041 12.0586 24.9116 11.4101L22.9663 1.68072C22.8362 1.03369 22.2081 0.615229 21.5583 0.742526Z" fill="#D97014"/>
<path d="M32.1982 2.8308L28.2435 10.6149C27.9439 11.2042 28.1788 11.9237 28.7668 12.2233C28.9412 12.3112 29.1255 12.3527 29.3083 12.3527C29.7437 12.3527 30.1642 12.1136 30.3759 11.6987L34.3306 3.91317C34.6288 3.32381 34.3939 2.60574 33.8059 2.30614C33.2158 2.00513 32.4964 2.24143 32.1982 2.8308Z" fill="#D97014"/>
</svg>
