<svg width="48" height="52" viewBox="0 0 48 52" fill="none" xmlns="http://www.w3.org/2000/svg">
<path d="M46.4003 25.0399H32.8323V11.6639C32.8323 10.9599 32.2563 10.3839 31.5523 10.3839H28.6083V1.61594C28.6083 0.911937 28.0323 0.335938 27.3283 0.335938H5.82431C5.12031 0.335938 4.54431 0.911937 4.54431 1.61594V10.4479H1.60031C0.896312 10.4479 0.320312 11.0239 0.320312 11.7279V50.4479C0.320312 51.1519 0.896312 51.7279 1.60031 51.7279H12.0963H21.0563H31.5523H46.4003C47.1043 51.7279 47.6803 51.1519 47.6803 50.4479V26.3199C47.6163 25.6159 47.0403 25.0399 46.4003 25.0399ZM7.10431 2.83194H26.1123V21.8399H7.10431V2.83194ZM2.88031 12.9439H4.54431V23.1199C4.54431 23.8239 5.12031 24.3999 5.82431 24.3999H27.3283C28.0323 24.3999 28.6083 23.8239 28.6083 23.1199V12.9439H30.2723V26.3199V49.1679H22.3363V41.7439C22.3363 41.0399 21.7603 40.4639 21.0563 40.4639H12.0963C11.3923 40.4639 10.8163 41.0399 10.8163 41.7439V49.1679H2.88031V12.9439ZM13.3763 49.1679V43.0239H19.7763V49.1679H13.3763ZM45.1203 49.1679H32.8323V27.5999H45.1203V49.1679Z" fill="#D97014"/>
<path d="M23.4252 10.704H17.8572V5.13596C17.8572 4.43196 17.2812 3.85596 16.5772 3.85596C15.8732 3.85596 15.2972 4.43196 15.2972 5.13596V10.704H9.72922C9.02522 10.704 8.44922 11.28 8.44922 11.984C8.44922 12.688 9.02522 13.264 9.72922 13.264H15.2972V18.832C15.2972 19.536 15.8732 20.112 16.5772 20.112C17.2812 20.112 17.8572 19.536 17.8572 18.832V13.2H23.4252C24.1292 13.2 24.7052 12.624 24.7052 11.92C24.7052 11.216 24.1292 10.704 23.4252 10.704Z" fill="#D97014"/>
<path d="M6.53 30.7998H7.362C8.066 30.7998 8.642 30.2238 8.642 29.5197C8.642 28.8157 8.066 28.2397 7.362 28.2397H6.53C5.826 28.2397 5.25 28.8157 5.25 29.5197C5.25 30.2878 5.826 30.7998 6.53 30.7998Z" fill="#D97014"/>
<path d="M12.4167 30.7998H14.0807C14.7847 30.7998 15.3607 30.2238 15.3607 29.5197C15.3607 28.8157 14.7847 28.2397 14.0807 28.2397H12.4167C11.7127 28.2397 11.1367 28.8157 11.1367 29.5197C11.1367 30.2878 11.7127 30.7998 12.4167 30.7998Z" fill="#D97014"/>
<path d="M19.1355 30.7998H20.7995C21.5035 30.7998 22.0795 30.2238 22.0795 29.5197C22.0795 28.8157 21.5035 28.2397 20.7995 28.2397H19.1355C18.4315 28.2397 17.8555 28.8157 17.8555 29.5197C17.8555 30.2878 18.4315 30.7998 19.1355 30.7998Z" fill="#D97014"/>
<path d="M25.7917 30.7998H26.6237C27.3277 30.7998 27.9037 30.2238 27.9037 29.5197C27.9037 28.8157 27.3277 28.2397 26.6237 28.2397H25.7917C25.0877 28.2397 24.5117 28.8157 24.5117 29.5197C24.5757 30.2878 25.1517 30.7998 25.7917 30.7998Z" fill="#D97014"/>
<path d="M36.2253 34.3198H37.0573C37.7613 34.3198 38.3373 33.7438 38.3373 33.0398C38.3373 32.3358 37.7613 31.7598 37.0573 31.7598H36.2253C35.5213 31.7598 34.9453 32.3358 34.9453 33.0398C34.9453 33.7438 35.5213 34.3198 36.2253 34.3198Z" fill="#D97014"/>
<path d="M40.8308 34.3198H41.6628C42.3668 34.3198 42.9428 33.7438 42.9428 33.0398C42.9428 32.3358 42.3668 31.7598 41.6628 31.7598H40.8308C40.1268 31.7598 39.5508 32.3358 39.5508 33.0398C39.6148 33.7438 40.1268 34.3198 40.8308 34.3198Z" fill="#D97014"/>
<path d="M36.2253 40.7202H37.0573C37.7613 40.7202 38.3373 40.1442 38.3373 39.4402C38.3373 38.7362 37.7613 38.1602 37.0573 38.1602H36.2253C35.5213 38.1602 34.9453 38.7362 34.9453 39.4402C34.9453 40.2082 35.5213 40.7202 36.2253 40.7202Z" fill="#D97014"/>
<path d="M40.8308 40.7202H41.6628C42.3668 40.7202 42.9428 40.1442 42.9428 39.4402C42.9428 38.7362 42.3668 38.1602 41.6628 38.1602H40.8308C40.1268 38.1602 39.5508 38.7362 39.5508 39.4402C39.6148 40.2082 40.1268 40.7202 40.8308 40.7202Z" fill="#D97014"/>
<path d="M7.362 34.832H6.53C5.826 34.832 5.25 35.408 5.25 36.112C5.25 36.816 5.826 37.392 6.53 37.392H7.362C8.066 37.392 8.642 36.816 8.642 36.112C8.642 35.408 8.066 34.832 7.362 34.832Z" fill="#D97014"/>
<path d="M12.4167 37.3281H14.0807C14.7847 37.3281 15.3607 36.7521 15.3607 36.0481C15.3607 35.3441 14.7847 34.7681 14.0807 34.7681H12.4167C11.7127 34.7681 11.1367 35.3441 11.1367 36.0481C11.1367 36.7521 11.7127 37.3281 12.4167 37.3281Z" fill="#D97014"/>
<path d="M19.1355 37.3281H20.7995C21.5035 37.3281 22.0795 36.7521 22.0795 36.0481C22.0795 35.3441 21.5035 34.7681 20.7995 34.7681H19.1355C18.4315 34.7681 17.8555 35.3441 17.8555 36.0481C17.8555 36.7521 18.4315 37.3281 19.1355 37.3281Z" fill="#D97014"/>
<path d="M25.7917 37.3281H26.6237C27.3277 37.3281 27.9037 36.7521 27.9037 36.0481C27.9037 35.3441 27.3277 34.7681 26.6237 34.7681H25.7917C25.0877 34.7681 24.5117 35.3441 24.5117 36.0481C24.5117 36.7521 25.1517 37.3281 25.7917 37.3281Z" fill="#D97014"/>
</svg>
