<svg width="49" height="49" viewBox="0 0 49 49" fill="none" xmlns="http://www.w3.org/2000/svg">
<path d="M11.7219 17.7371L11.7148 18.2013C11.7366 21.2648 12.4653 22.5821 13.2368 23.9753L13.3725 24.2201C14.1982 25.6415 15.0028 27.2844 14.9802 30.3233C14.9746 34.8645 15.8298 37.2557 16.5493 38.4647C17.2955 39.7095 17.8567 40.4662 19.3773 40.4662C20.8239 40.4662 21.67 39.2453 21.7565 38.0694C21.8107 37.5215 21.8212 36.9019 21.8311 36.2465C21.8536 34.7998 21.8831 33.0008 22.4387 31.1314C22.6588 30.4119 22.9085 29.5954 23.3783 28.8886C23.609 28.5397 24.1189 28.1691 24.6056 28.1691C24.7378 28.1691 25.1408 28.1691 25.5684 28.8583C26.0375 29.6137 26.3258 30.4626 26.546 31.1905C27.0875 33.0022 27.321 35.1029 27.1726 36.8056C27.0615 38.068 27.3119 39.0421 27.916 39.7011C28.5658 40.41 29.3627 40.4662 29.5912 40.4662H29.5919C30.9732 40.4662 31.6027 39.8206 32.4192 38.4633C33.1373 37.2557 33.9925 34.8659 33.9897 30.3177C33.97 27.2844 34.7387 25.7019 35.6115 24.1955L35.7324 23.9768C36.5018 22.5835 37.2297 21.2677 37.2586 18.1928C37.2586 18.0965 37.2558 17.9994 37.253 17.8975L37.2473 17.6914C37.1643 15.4647 36.3021 13.8162 34.6015 12.6431C33.2322 11.7197 31.3221 11.2119 29.1594 11.2119C27.5003 11.2119 25.7583 11.5474 24.4853 12.1079C23.4838 11.6648 22.1834 11.3617 20.8134 11.2527C20.7761 11.2499 20.7417 11.2457 20.703 11.2485L18.4995 11.2766C18.4588 11.2773 18.4194 11.2801 18.3793 11.2844C16.8046 11.4644 15.4163 11.9342 14.355 12.6495C12.6643 13.8176 11.8028 15.4676 11.7219 17.7371ZM15.7032 14.6257C16.4248 14.139 17.4228 13.8085 18.5924 13.6678L20.6763 13.6411C21.772 13.7346 22.8206 13.9787 23.5675 14.3184L23.9635 14.4942L26.8744 16.0407C27.053 16.1357 27.245 16.1807 27.4349 16.1807C27.8625 16.1807 28.2768 15.95 28.4913 15.5456C28.8014 14.9626 28.5792 14.2389 27.9969 13.9288L27.6051 13.7206C28.1305 13.6453 28.6798 13.6031 29.2255 13.6031C30.8283 13.6031 32.3017 13.9759 33.2547 14.6187C34.0086 15.1384 34.7893 15.9212 34.8575 17.7547L34.8674 18.1816C34.8442 20.6403 34.3645 21.5075 33.6394 22.8198L33.5297 23.0189C32.5831 24.6533 31.5759 26.7013 31.5992 30.3254C31.602 34.5325 30.8269 36.4631 30.3677 37.2346C29.9598 37.9147 29.8043 38.0476 29.7896 38.0617C29.7861 38.0631 29.7572 38.0701 29.6714 38.0729C29.6285 38.011 29.4914 37.7473 29.5561 37.0138C29.7326 34.9946 29.471 32.6224 28.838 30.5026C28.5722 29.6207 28.2177 28.5862 27.6023 27.5973C26.8744 26.4228 25.811 25.7758 24.607 25.7758C23.3713 25.7758 22.1075 26.4777 21.3873 27.5643C20.7248 28.5615 20.3949 29.6425 20.153 30.4309C20.1523 30.4337 20.1312 30.504 20.1298 30.5062C19.4996 32.6322 19.4673 34.6148 19.4413 36.2064C19.4307 36.8365 19.4223 37.3823 19.3752 37.8619C19.3695 37.9295 19.3421 38.0174 19.3147 38.0722C19.2556 38.0722 19.2162 38.0694 19.1951 38.0694C19.1824 38.0694 19.1761 38.0708 19.1761 38.0722C19.1051 38.0131 18.9497 37.8169 18.6036 37.2381C18.1416 36.4617 17.3672 34.5318 17.3715 30.3331C17.3989 26.6985 16.3897 24.6505 15.4536 23.0421L15.3284 22.817C14.6033 21.5061 14.1236 20.6389 14.1061 18.1928L14.1117 17.7793C14.1792 15.9219 14.9592 15.1391 15.7032 14.6257Z" fill="#D97014"/>
<path d="M24.2073 6.5957C24.867 6.5957 25.4029 6.05979 25.4029 5.4001V1.56572C25.4029 0.905326 24.867 0.370117 24.2073 0.370117C23.5476 0.370117 23.0117 0.905326 23.0117 1.56572V5.4001C23.0117 6.05979 23.5469 6.5957 24.2073 6.5957Z" fill="#D97014"/>
<path d="M24.2073 42.6909C23.5476 42.6909 23.0117 43.2254 23.0117 43.8858V47.7209C23.0117 48.3806 23.5476 48.9158 24.2073 48.9158C24.867 48.9158 25.4029 48.3799 25.4029 47.7209V43.8858C25.4029 43.2254 24.867 42.6909 24.2073 42.6909Z" fill="#D97014"/>
<path d="M42.5352 24.9243C42.5352 25.5847 43.0704 26.1192 43.7308 26.1192H47.5651C48.2248 26.1192 48.7607 25.5847 48.7607 24.9243C48.7607 24.2639 48.2248 23.728 47.5651 23.728H43.7308C43.0704 23.728 42.5352 24.2639 42.5352 24.9243Z" fill="#D97014"/>
<path d="M5.24482 26.1197C5.90451 26.1197 6.44043 25.5852 6.44043 24.9248C6.44043 24.2644 5.90451 23.7285 5.24482 23.7285H1.41045C0.750052 23.7285 0.214844 24.2644 0.214844 24.9248C0.214844 25.5852 0.750052 26.1197 1.41045 26.1197H5.24482Z" fill="#D97014"/>
<path d="M33.1783 8.94914C33.3654 9.05604 33.5686 9.10668 33.7698 9.10668C34.1847 9.10668 34.5884 8.88936 34.81 8.50325L36.7081 5.17103C37.0352 4.59784 36.8347 3.86712 36.2616 3.54079C35.6877 3.21305 34.9569 3.41349 34.6306 3.98738L32.7317 7.3196C32.404 7.89279 32.6044 8.62211 33.1783 8.94914Z" fill="#D97014"/>
<path d="M13.6804 40.7596L11.7822 44.0904C11.4551 44.6643 11.6549 45.3944 12.2288 45.7207C12.4158 45.8276 12.6191 45.8775 12.8195 45.8775C13.2359 45.8775 13.6396 45.6602 13.8597 45.2748L15.7579 41.944C16.0849 41.3701 15.8852 40.6401 15.3113 40.3137C14.7374 39.9853 14.0067 40.1857 13.6804 40.7596Z" fill="#D97014"/>
<path d="M41.6626 33.5001C41.088 33.1745 40.3587 33.3735 40.0317 33.9481C39.7053 34.522 39.9051 35.252 40.4797 35.5783L43.8119 37.4765C43.999 37.582 44.2022 37.6334 44.4027 37.6334C44.8183 37.6334 45.2227 37.4161 45.4428 37.0293C45.7699 36.4554 45.5694 35.7253 44.9955 35.399L41.6626 33.5001Z" fill="#D97014"/>
<path d="M3.70487 14.631L7.03709 16.5285C7.22417 16.634 7.42742 16.6853 7.62786 16.6853C8.04351 16.6853 8.4479 16.468 8.66803 16.0812C8.99507 15.508 8.79463 14.7772 8.22074 14.4509L4.88922 12.5541C4.31533 12.2271 3.58461 12.4268 3.25828 13.0014C2.93195 13.5739 3.13168 14.3046 3.70487 14.631Z" fill="#D97014"/>
<path d="M40.8366 16.0199C41.0441 16.0199 41.2536 15.9665 41.4449 15.8532L44.7455 13.8981C45.3131 13.5612 45.5008 12.8283 45.1647 12.2594C44.8278 11.6918 44.095 11.504 43.526 11.8402L40.2268 13.7961C39.6586 14.133 39.4715 14.8658 39.8077 15.4341C40.0306 15.811 40.428 16.0199 40.8366 16.0199Z" fill="#D97014"/>
<path d="M7.1238 33.4242L3.82464 35.3787C3.25567 35.7155 3.0693 36.4484 3.40548 37.0173C3.62772 37.3936 4.02649 37.6025 4.4344 37.6025C4.64187 37.6025 4.85216 37.549 5.04275 37.4365L8.34191 35.482C8.91088 35.1452 9.09725 34.4123 8.76108 33.8434C8.4242 33.2758 7.69136 33.088 7.1238 33.4242Z" fill="#D97014"/>
<path d="M33.3907 40.5481C32.8232 40.885 32.6354 41.6178 32.9716 42.1868L34.926 45.4845C35.149 45.8608 35.547 46.0711 35.9557 46.0711C36.1631 46.0711 36.3727 46.0162 36.564 45.9037C37.1323 45.5668 37.3193 44.834 36.9832 44.265L35.0294 40.9673C34.6932 40.3997 33.9597 40.2133 33.3907 40.5481Z" fill="#D97014"/>
<path d="M13.3442 9.08195C13.5671 9.45822 13.9652 9.6678 14.3738 9.6678C14.5813 9.6678 14.7915 9.61365 14.9821 9.50112C15.5504 9.16424 15.7375 8.4314 15.4013 7.86244L13.4468 4.56538C13.1107 3.99712 12.3764 3.81074 11.8089 4.14622C11.2406 4.48309 11.0535 5.21663 11.3897 5.78419L13.3442 9.08195Z" fill="#D97014"/>
</svg>
