<svg width="48" height="51" viewBox="0 0 48 51" fill="none" xmlns="http://www.w3.org/2000/svg">
<path d="M18.0732 49.6073C18.742 50.3352 19.5578 50.3929 19.7927 50.3929C21.2253 50.3929 21.8808 49.7184 22.7283 48.302C23.4864 47.0325 24.3888 44.5119 24.386 39.707C24.3628 36.4845 25.1828 34.7924 26.1097 33.1839L26.2307 32.9652C27.081 31.432 27.8159 30.1091 27.8462 26.8578L27.8377 26.3317C27.7498 23.9651 26.8735 22.2849 25.0675 21.0366C23.6306 20.0667 21.6227 19.5322 19.4137 19.5322H19.33C17.5745 19.5322 15.7256 19.8923 14.3837 20.4894C13.3315 20.0168 11.9496 19.6926 10.4881 19.573C10.4494 19.5702 10.4129 19.5688 10.3756 19.5688L8.04205 19.599C8.00196 19.6004 7.96258 19.6033 7.92249 19.6075C6.26201 19.7974 4.80126 20.2932 3.69427 21.0457C1.89594 22.2821 1.01682 23.9609 0.928908 26.3423C0.924688 26.5307 0.921875 26.7009 0.921875 26.8669C0.94649 30.0936 1.71449 31.4798 2.5275 32.9469L2.67027 33.205C3.54798 34.7256 4.4039 36.481 4.37928 39.7147C4.37647 44.5098 5.27739 47.029 6.03555 48.3055C6.89005 49.7234 7.45691 50.3922 8.97392 50.3922C10.4494 50.3922 11.3229 49.134 11.4228 47.9131C11.4791 47.3378 11.4889 46.6837 11.4995 45.9931C11.5241 44.4543 11.5543 42.5413 12.1409 40.5587C12.38 39.7879 12.6493 38.9144 13.1529 38.1534C13.4082 37.7673 13.9715 37.358 14.5131 37.358C14.6643 37.358 15.1214 37.358 15.594 38.1204C16.0885 38.92 16.3895 39.7935 16.6377 40.6107C17.213 42.542 17.462 44.7785 17.3038 46.5916C17.1898 47.9096 17.4479 48.9237 18.0732 49.6073ZM14.5145 34.9689C13.2289 34.9689 11.913 35.6996 11.1598 36.834C10.4677 37.8819 10.1294 38.9756 9.85726 39.8533C9.85585 39.8575 9.83546 39.9264 9.83405 39.9299C9.16943 42.1756 9.13638 44.2721 9.11036 45.9544C9.0991 46.6232 9.08996 47.2013 9.04143 47.6986C9.03018 47.8223 8.96618 47.9855 8.97392 48.001C8.8199 48.001 8.75027 47.9925 8.73339 47.9925C8.72917 47.9925 8.72776 47.9925 8.72917 47.9939C8.65743 47.9447 8.48864 47.7429 8.08776 47.0776C7.59475 46.2491 6.76768 44.1912 6.77049 39.7246C6.79933 35.8994 5.73735 33.7367 4.75273 32.0312L4.6184 31.7879C3.84337 30.3911 3.33278 29.4677 3.31379 26.8578C3.31379 26.7192 3.31519 26.5694 3.31941 26.4168C3.37849 24.8259 3.89471 23.8083 5.04319 23.0199C5.81401 22.4952 6.88231 22.1408 8.13418 21.9895L10.3496 21.9621C11.5227 22.0627 12.6437 22.325 13.4427 22.6886L13.859 22.8729L16.9507 24.5144C17.1293 24.6093 17.3199 24.6529 17.5098 24.6529C17.9381 24.6529 18.3517 24.4223 18.5662 24.0186C18.8763 23.4348 18.6541 22.7111 18.0718 22.4017L17.469 22.0817C18.0774 21.9811 18.7139 21.9234 19.33 21.9234H19.4137C21.1255 21.9234 22.6995 22.3229 23.7185 23.0114C24.5329 23.5734 25.3748 24.418 25.4479 26.3852L25.455 26.8465C25.4304 29.4797 24.9177 30.4045 24.1405 31.8041L24.028 32.0087C23.0307 33.7381 21.9687 35.9043 21.9948 39.7161C21.9976 44.1912 21.1691 46.2477 20.6761 47.0747C20.2253 47.8287 20.0565 47.9637 20.022 47.9841C20.0178 47.9855 19.9777 47.9982 19.8462 47.9989C19.7955 47.9588 19.6113 47.662 19.6865 46.7998C19.8722 44.6695 19.5972 42.165 18.9284 39.9194C18.6302 38.9411 18.2666 37.8932 17.6273 36.8601C16.8698 35.6405 15.7642 34.9689 14.5145 34.9689Z" fill="#D97014"/>
<path d="M45.6968 25.9701L34.091 16.797C33.8413 16.5993 33.5206 16.51 33.2048 16.548C32.8876 16.5881 32.5993 16.7512 32.4038 17.0037L31.3158 18.4117L26.309 14.545C28.5497 10.6825 27.6453 5.65181 24.0177 2.84706C22.4191 1.61207 20.5082 0.958008 18.4919 0.958008C15.6625 0.958008 13.0483 2.24223 11.3218 4.48012C8.27085 8.42772 9.00298 14.123 12.952 17.1767C14.552 18.4117 16.4643 19.0658 18.4806 19.0658C20.9049 19.0658 23.166 18.1177 24.8504 16.4411L29.8543 20.305L28.7649 21.7144C28.364 22.2334 28.4562 22.9796 28.9724 23.3847L43.345 34.6951C43.5567 34.8625 43.8176 34.9519 44.0841 34.9519C44.1334 34.9519 44.1833 34.9476 44.2325 34.942C44.5483 34.9019 44.8367 34.7388 45.0308 34.4863L46.5309 32.5424C47.2961 31.5521 47.6287 30.3213 47.4677 29.0751C47.308 27.8296 46.6744 26.724 45.6968 25.9701ZM18.4806 16.6746C16.9974 16.6746 15.5908 16.1935 14.4134 15.2842C11.5067 13.0385 10.9687 8.84759 13.2129 5.94227C14.4852 4.29515 16.4094 3.34992 18.4919 3.34992C19.9737 3.34992 21.3789 3.83098 22.5562 4.74034C25.4629 6.98596 26.001 11.1783 23.7553 14.0836C22.4852 15.7308 20.5631 16.6746 18.4806 16.6746ZM33.5565 19.4231L34.9399 20.5153L32.7681 23.3285L31.3819 22.2391L33.5565 19.4231ZM44.639 31.0809L43.8753 32.0697L34.6473 24.8082L36.8163 21.9992L44.2255 27.8549C44.708 28.2269 45.0181 28.7699 45.0962 29.381C45.1742 29.9936 45.0125 30.5963 44.639 31.0809Z" fill="#D97014"/>
<path d="M17.6888 6.14614L12.7695 10.0352L14.2526 11.9111L19.1718 8.02204L17.6888 6.14614Z" fill="#D97014"/>
<path d="M22.7132 6.70764L14.6406 13.0903L16.1237 14.966L24.1962 8.58331L22.7132 6.70764Z" fill="#D97014"/>
</svg>
