<svg width="23" height="20" viewBox="0 0 23 20" fill="none" xmlns="http://www.w3.org/2000/svg">
<path d="M1.58777 11.099L20.0652 11.099L12.9899 18.0112C12.6194 18.3731 12.6051 18.9744 12.9579 19.3544C13.3104 19.734 13.8967 19.7492 14.2676 19.3872L22.3479 11.4928C22.6975 11.1337 22.8906 10.6568 22.8906 10.1491C22.8906 9.64176 22.6975 9.16439 22.3317 8.78962L14.2671 0.911365C14.0879 0.736091 13.8582 0.649169 13.6285 0.649169C13.384 0.649169 13.1395 0.747966 12.9575 0.944139C12.6046 1.32413 12.6189 1.925 12.9894 2.28695L20.0944 9.19906L1.58778 9.19906C1.07651 9.19906 0.661563 9.62466 0.661563 10.1491C0.661563 10.6734 1.07651 11.099 1.58777 11.099Z" fill="white"/>
</svg>
