<?xml version="1.0" encoding="UTF-8"?> <svg xmlns="http://www.w3.org/2000/svg" width="202" height="202" viewBox="0 0 202 202" fill="none"> <path d="M186.053 133.001C173.745 133.025 161.513 131.079 149.82 127.239C144.353 125.327 138.277 126.614 134.054 130.577L111.111 147.886C86.4717 135.515 66.4796 115.527 54.1045 90.8896L70.9554 68.4995C75.2098 64.242 76.7313 57.9662 74.8999 52.2332C71.0446 40.5243 69.0885 28.2742 69.1055 15.9474C69.1055 7.13994 61.9655 0 53.1581 0H15.9474C7.13994 0 0 7.13994 0 15.9474C0.117114 118.653 83.347 201.883 186.053 202C194.86 202 202 194.86 202 186.053V148.949C202 140.141 194.86 133.001 186.053 133.001Z" fill="#57D167"></path> <path d="M196.685 85.0529C193.749 85.0529 191.369 82.6727 191.369 79.7369C191.322 41.5903 160.41 10.6783 122.263 10.6314C119.327 10.6314 116.947 8.25127 116.947 5.31546C116.947 2.37965 119.327 0 122.263 0C166.281 0.0468454 201.953 35.7186 202 79.7369C202 82.6727 199.62 85.0529 196.685 85.0529Z" fill="#455A64"></path> <path d="M154.158 85.0529C151.222 85.0529 148.842 82.6727 148.842 79.7369C148.842 65.0578 136.942 53.1581 122.263 53.1581C119.327 53.1581 116.947 50.778 116.947 47.8421C116.947 44.9063 119.327 42.5262 122.263 42.5262C142.814 42.5262 159.474 59.1862 159.474 79.7369C159.474 82.6727 157.094 85.0529 154.158 85.0529Z" fill="#455A64"></path> </svg> 