<svg width="30" height="30" viewBox="0 0 30 30" fill="none" xmlns="http://www.w3.org/2000/svg">
<path d="M26.2069 3.97587H23.6768V1.4458C23.6768 0.650565 23.0262 0 22.2313 0H3.7973C3.00213 0 2.35156 0.650565 2.35156 1.4458V24.5783C2.35156 25.3734 3.00213 26.0241 3.79736 26.0241H6.32749V28.5542C6.32749 29.3494 6.97777 30 7.77329 30H20.0621C20.8569 30 21.9817 29.554 22.5604 29.0093L26.5992 25.2076C27.1786 24.6629 27.6521 23.5663 27.6521 22.7711L27.6528 5.42179C27.6527 4.62649 27.0021 3.97587 26.2069 3.97587ZM6.32738 5.42173V24.9397H3.7973C3.60142 24.9397 3.4359 24.7742 3.4359 24.5783V1.4458C3.4359 1.24992 3.60142 1.08439 3.7973 1.08439H22.2314C22.4269 1.08439 22.5928 1.24992 22.5928 1.4458V3.97593H7.77317C6.97765 3.97593 6.32738 4.62649 6.32738 5.42173ZM25.856 24.4181L21.8172 28.2195C21.7345 28.2973 21.6267 28.3735 21.5078 28.4461V25.1204C21.5078 24.8721 21.6079 24.6487 21.7731 24.4825C21.9397 24.3173 22.1631 24.2169 22.4114 24.2169H26.0277C25.9716 24.293 25.9142 24.3632 25.856 24.4181ZM26.5676 22.771C26.5676 22.8784 26.548 23.0027 26.5185 23.1324H22.4113C21.3144 23.1346 20.4256 24.0234 20.4234 25.1204V28.8718C20.2943 28.8979 20.17 28.9155 20.062 28.9155H7.77317V28.9156C7.57689 28.9156 7.41177 28.75 7.41177 28.5541V5.42167C7.41177 5.22579 7.57694 5.06026 7.77317 5.06026H26.2069C26.4027 5.06026 26.5683 5.22579 26.5683 5.42167L26.5676 22.771Z" fill="black"/>
<path d="M22.2311 9.03607H11.7492C11.4496 9.03607 11.207 9.27859 11.207 9.57824C11.207 9.87789 11.4496 10.1204 11.7492 10.1204H22.2311C22.5304 10.1204 22.7732 9.87789 22.7732 9.57824C22.7732 9.27859 22.5304 9.03607 22.2311 9.03607Z" fill="black"/>
<path d="M22.2311 16.265H11.7492C11.4496 16.265 11.207 16.5075 11.207 16.8072C11.207 17.1068 11.4496 17.3493 11.7492 17.3493H22.2311C22.5304 17.3493 22.7732 17.1068 22.7732 16.8072C22.7732 16.5075 22.5304 16.265 22.2311 16.265Z" fill="black"/>
<path d="M17.5323 19.8795H11.7492C11.4496 19.8795 11.207 20.122 11.207 20.4216C11.207 20.7213 11.4496 20.9638 11.7492 20.9638H17.5323C17.8316 20.9638 18.0741 20.7213 18.0741 20.4216C18.0741 20.122 17.8316 19.8795 17.5323 19.8795Z" fill="black"/>
<path d="M22.2311 12.6506H11.7492C11.4496 12.6506 11.207 12.8931 11.207 13.1927C11.207 13.4924 11.4496 13.7349 11.7492 13.7349H22.2311C22.5304 13.7349 22.7732 13.4924 22.7732 13.1927C22.7732 12.8931 22.5304 12.6506 22.2311 12.6506Z" fill="black"/>
</svg>
