<svg width="37" height="38" viewBox="0 0 37 38" fill="none" xmlns="http://www.w3.org/2000/svg">
<path d="M19.6375 2.71812C20.3006 2.19375 21.125 1.54125 21.125 0.25H19.875C19.875 0.905 19.5088 1.22625 18.8625 1.73812C18.1994 2.2625 17.375 2.915 17.375 4.20625C17.375 5.4975 18.1994 6.15125 18.8625 6.67625C19.5088 7.18875 19.875 7.51 19.875 8.16562C19.875 8.82125 19.5088 9.14312 18.8619 9.65562C18.1994 10.1806 17.375 10.8331 17.375 12.125H18.625C18.625 11.4694 18.9912 11.1481 19.6375 10.6356C20.3006 10.1106 21.125 9.4575 21.125 8.16562C21.125 6.87375 20.3006 6.22125 19.6381 5.69625C18.9912 5.1875 18.625 4.86187 18.625 4.20625C18.625 3.55062 18.9912 3.23062 19.6375 2.71812Z" fill="#2A03CC"/>
<path d="M24.0125 2.71812C24.6756 2.19375 25.5 1.54125 25.5 0.25H24.25C24.25 0.905 23.8838 1.22625 23.2375 1.73812C22.5744 2.2625 21.75 2.915 21.75 4.20625C21.75 5.4975 22.5744 6.15125 23.2375 6.67625C23.8838 7.18875 24.25 7.51 24.25 8.16562C24.25 8.82125 23.8838 9.14312 23.2369 9.65562C22.5744 10.1806 21.75 10.8331 21.75 12.125H23C23 11.4694 23.3662 11.1481 24.0125 10.6356C24.6756 10.1106 25.5 9.4575 25.5 8.16562C25.5 6.87375 24.6756 6.22125 24.0131 5.69625C23.3662 5.1875 23 4.86187 23 4.20625C23 3.55062 23.3662 3.23062 24.0125 2.71812Z" fill="#2A03CC"/>
<path d="M15.2625 2.71812C15.9256 2.19375 16.75 1.54125 16.75 0.25H15.5C15.5 0.905 15.1337 1.22625 14.4875 1.73812C13.8244 2.2625 13 2.915 13 4.20625C13 5.4975 13.8244 6.15125 14.4875 6.67625C15.1337 7.18875 15.5 7.51 15.5 8.16562C15.5 8.82125 15.1337 9.14312 14.4869 9.65562C13.8244 10.1806 13 10.8331 13 12.125H14.25C14.25 11.4694 14.6163 11.1481 15.2625 10.6356C15.9256 10.1106 16.75 9.4575 16.75 8.16562C16.75 6.87375 15.9256 6.22125 15.2631 5.69625C14.6163 5.1875 14.25 4.86187 14.25 4.20625C14.25 3.55062 14.6163 3.23062 15.2625 2.71812Z" fill="#2A03CC"/>
<path d="M9.25 20.875H8C8 20.9612 8.09125 29.5106 15.9737 31.4813L16.2762 30.2687C9.35062 28.5375 9.25 21.1875 9.25 20.875Z" fill="#2A03CC"/>
<path d="M9.25 17.75H8V19.625H9.25V17.75Z" fill="#2A03CC"/>
<path d="M34.25 17.125H30.5V15.25C30.5 15.0842 30.4342 14.9253 30.3169 14.8081C30.1997 14.6908 30.0408 14.625 29.875 14.625H6.125C5.95924 14.625 5.80027 14.6908 5.68306 14.8081C5.56585 14.9253 5.5 15.0842 5.5 15.25V21.5C5.50328 23.8521 6.1701 26.1555 7.42384 28.1455C8.67758 30.1356 10.4674 31.7316 12.5875 32.75H1.125C0.95924 32.75 0.800269 32.8158 0.683058 32.9331C0.565848 33.0503 0.5 33.2092 0.5 33.375C0.501488 34.5349 0.962902 35.6468 1.78305 36.4669C2.6032 37.2871 3.71513 37.7485 4.875 37.75H31.125C32.2849 37.7485 33.3968 37.2871 34.2169 36.4669C35.0371 35.6468 35.4985 34.5349 35.5 33.375C35.5 33.2092 35.4342 33.0503 35.3169 32.9331C35.1997 32.8158 35.0408 32.75 34.875 32.75H23.4125C25.6699 31.6591 27.5492 29.9178 28.8088 27.75H34.25C34.7473 27.75 35.2242 27.5525 35.5758 27.2008C35.9275 26.8492 36.125 26.3723 36.125 25.875V19C36.125 18.5027 35.9275 18.0258 35.5758 17.6742C35.2242 17.3225 34.7473 17.125 34.25 17.125ZM30.5 20.875H32.375V24H30.25C30.4169 23.1771 30.5006 22.3396 30.5 21.5V20.875ZM34.1875 34C34.0425 34.7054 33.6588 35.3393 33.1009 35.7947C32.543 36.2501 31.8452 36.4992 31.125 36.5H4.875C4.15484 36.4992 3.45698 36.2501 2.8991 35.7947C2.34122 35.3393 1.95745 34.7054 1.8125 34H34.1875ZM18 32.75C15.0174 32.7465 12.1579 31.5601 10.0489 29.4511C7.93985 27.3421 6.75347 24.4826 6.75 21.5V15.875H29.25V21.5C29.2465 24.4826 28.0601 27.3421 25.9511 29.4511C23.8421 31.5601 20.9826 32.7465 18 32.75ZM34.875 25.875C34.875 26.0408 34.8092 26.1997 34.6919 26.3169C34.5747 26.4342 34.4158 26.5 34.25 26.5H29.4494C29.6297 26.0921 29.788 25.6748 29.9237 25.25H33.625V19.625H30.5V18.375H34.25C34.4158 18.375 34.5747 18.4408 34.6919 18.5581C34.8092 18.6753 34.875 18.8342 34.875 19V25.875Z" fill="#2A03CC"/>
</svg>
