<svg width="39" height="50" viewBox="0 0 39 50" fill="none" xmlns="http://www.w3.org/2000/svg">
<g clip-path="url(#clip0)">
<path d="M6.71097 31.5625H14.4525C14.6189 31.1407 14.7978 30.724 14.9892 30.3125H7.02081C7.20687 29.6754 7.42733 29.0495 7.68117 28.4375H15.9692C16.2151 28.0121 16.4725 27.5955 16.7412 27.1875H8.24908C8.56727 26.5451 8.91729 25.9184 9.29572 25.3125H18.0963C18.4375 24.8814 18.7881 24.4634 19.1475 24.0625H10.1355C10.6027 23.4123 11.1014 22.7865 11.6297 22.1875H18.2261C18.6547 22.6737 19.0714 23.1812 19.468 23.7126C19.7523 23.4068 20.0404 23.111 20.3325 22.8253C19.0469 21.1273 17.5568 19.6031 15.8978 18.289C16.3165 17.9235 16.7214 17.5519 17.1123 17.1743C17.0331 17.057 16.9518 16.9404 16.8749 16.8225C16.787 16.7132 16.7114 16.594 16.6497 16.4673C16.5753 16.3491 16.5071 16.2292 16.4338 16.1117C15.9561 16.58 15.4532 17.0381 14.9305 17.4876C14.2276 16.8834 13.5618 16.2629 12.9409 15.625H16.1441C15.9058 15.2119 15.6808 14.7952 15.4691 14.375H11.7938C11.2659 13.7624 10.7755 13.1374 10.3226 12.5H14.63C14.4658 12.0859 14.3123 11.6694 14.1741 11.25H9.48818C9.10536 10.6338 8.7575 10.0088 8.44457 9.375H13.6501C13.5536 8.96015 13.4684 8.54357 13.3973 8.125H7.87614C7.62079 7.51216 7.39611 6.88634 7.203 6.25H13.1672C13.1349 5.83448 13.1138 5.41788 13.1067 5H6.8696C6.72674 4.38143 6.6158 3.75556 6.53724 3.125H13.5737C13.7443 2.92842 13.9536 2.77109 14.1878 2.66336C14.4219 2.55564 14.6756 2.49994 14.9323 2.49994C15.1889 2.49994 15.4426 2.55564 15.6768 2.66336C15.911 2.77109 16.1202 2.92842 16.2909 3.125H23.3166C23.2646 3.54302 23.2035 3.96013 23.1228 4.375H24.3651C24.5908 3.1356 24.6954 1.87623 24.6775 0.615541C24.6723 0.450719 24.6049 0.294415 24.4895 0.179583C24.3741 0.0647511 24.2197 0.000365176 24.0589 0C23.8973 0.00254431 23.7433 0.0708097 23.6308 0.189786C23.5183 0.308763 23.4564 0.46871 23.4588 0.634459C23.4649 1.049 23.4512 1.46232 23.4287 1.875H6.42549C6.40318 1.46244 6.39492 1.04893 6.4007 0.634459C6.40312 0.468709 6.34125 0.308761 6.22871 0.189784C6.11616 0.0708074 5.96216 0.00254267 5.80055 0L5.79119 0C5.6312 5.29892e-05 5.47764 0.0646296 5.36366 0.179791C5.24969 0.294953 5.18443 0.451463 5.18198 0.615541C5.12318 4.60224 6.29816 8.50983 8.57461 12.1028C8.60507 12.1834 8.65149 12.2566 8.71094 12.3178C10.1823 14.5491 11.951 16.5582 13.9655 18.2865C13.9223 18.3209 13.8808 18.356 13.8373 18.3902C9.15356 22.0738 4.67436 28.8476 5.22586 35.6766C5.24195 35.8406 5.3195 35.9918 5.44215 36.0984C5.56481 36.205 5.72301 36.2586 5.88342 36.2479C6.04447 36.2342 6.19363 36.1554 6.29809 36.0289C6.40254 35.9025 6.45374 35.7386 6.44043 35.5734C6.41657 35.278 6.40627 34.9827 6.40244 34.6875H13.4989C13.5897 34.2677 13.6946 33.851 13.8138 33.4375H6.44331C6.49293 32.8072 6.58234 32.1809 6.71097 31.5625ZM14.579 19.382C14.6985 19.288 14.8144 19.1921 14.9319 19.0971C15.049 19.1917 15.1616 19.2884 15.2807 19.382C15.8949 19.8675 16.483 20.3868 17.0425 20.9375H12.8152C13.3754 20.3868 13.9642 19.8676 14.579 19.382Z" fill="#2A03CC"/>
<path d="M25.163 22.1403C25.1206 22.107 25.0798 22.073 25.0377 22.0395C27.0516 20.3103 28.8193 18.3003 30.2893 16.0679C30.3487 16.0067 30.395 15.9335 30.4255 15.853C32.702 12.2601 33.8769 8.35245 33.8181 4.36569C33.817 4.28357 33.8001 4.20248 33.7684 4.12706C33.7367 4.05164 33.6908 3.98337 33.6333 3.92615C33.5759 3.86893 33.508 3.82389 33.4336 3.79359C33.3591 3.76329 33.2796 3.74834 33.1995 3.74958C33.1195 3.75083 33.0404 3.76824 32.9669 3.80084C32.8934 3.83343 32.8269 3.88056 32.7712 3.93954C32.7154 3.99851 32.6716 4.06818 32.6421 4.14455C32.6126 4.22092 32.5981 4.30249 32.5994 4.38462C32.6055 4.79901 32.5973 5.21252 32.5746 5.62516H15.5661C15.5438 5.2126 15.5355 4.79908 15.5413 4.38462C15.5437 4.21887 15.4819 4.05892 15.3693 3.93994C15.2568 3.82096 15.1028 3.7527 14.9412 3.75015C14.7806 3.75121 14.6266 3.81582 14.5114 3.93051C14.3961 4.0452 14.3285 4.2011 14.3226 4.36569C14.2638 8.3524 15.4388 12.26 17.7152 15.8529C17.7457 15.9335 17.7921 16.0067 17.8516 16.0679C19.3216 18.3003 21.0893 20.3104 23.1032 22.0395C23.0611 22.073 23.0203 22.107 22.9779 22.1403C18.2942 25.824 13.815 32.5978 14.3665 39.4267C14.3726 39.5089 14.3945 39.589 14.4309 39.6625C14.4673 39.736 14.5176 39.8013 14.5787 39.8548C14.6398 39.9083 14.7107 39.9488 14.7872 39.9741C14.8637 39.9994 14.9443 40.0089 15.0244 40.0021C15.1045 39.9953 15.1825 39.9723 15.2539 39.9345C15.3253 39.8967 15.3886 39.8447 15.4404 39.7816C15.4921 39.7186 15.5312 39.6456 15.5553 39.567C15.5795 39.4884 15.5882 39.4057 15.5811 39.3236C15.5572 39.0281 15.5469 38.7328 15.5431 38.4376H32.5977C32.5939 38.7328 32.5836 39.0281 32.5597 39.3236C32.5464 39.4888 32.5976 39.6526 32.702 39.7791C32.8065 39.9056 32.9557 39.9843 33.1167 39.998C33.1338 39.9995 33.1508 40.0001 33.1677 40.0001C33.3205 39.9999 33.4677 39.9409 33.58 39.8347C33.6923 39.7285 33.7617 39.5829 33.7743 39.4267C34.3258 32.5978 29.8466 25.824 25.163 22.1403ZM15.6779 6.87515H32.4629C32.3843 7.50571 32.2734 8.13158 32.1305 8.75015H16.0102C15.8674 8.13158 15.7564 7.50571 15.6779 6.87515ZM16.3436 10.0002H31.7971C31.604 10.6365 31.3793 11.2623 31.124 11.8752H17.0168C16.7614 11.2623 16.5367 10.6365 16.3436 10.0002ZM17.5852 13.1252H30.5556C30.2421 13.7584 29.8942 14.3834 29.512 15.0002H18.6288C18.246 14.384 17.8981 13.759 17.5852 13.1252ZM20.9344 18.1252C20.4065 17.5125 19.9161 16.8875 19.4632 16.2502H28.6776C28.2242 16.8868 27.7338 17.5118 27.2064 18.1252H20.9344ZM22.0815 19.3752H26.0593C25.4376 20.0139 24.7746 20.6361 24.0704 21.2419C23.3658 20.6371 22.7029 20.0148 22.0815 19.3752ZM23.7196 23.1322C23.8382 23.0388 23.9537 22.944 24.0705 22.8497C24.1872 22.944 24.3027 23.0388 24.4213 23.1322C25.0361 23.6177 25.6248 24.137 26.185 24.6876H21.9559C22.516 24.137 23.1048 23.6177 23.7196 23.1322ZM20.7703 25.9376H27.3705C27.8988 26.5366 28.3974 27.1624 28.8646 27.8126H19.2762C19.7434 27.1624 20.242 26.5366 20.7703 25.9376ZM18.4363 29.0626H29.7044C30.0828 29.6686 30.4328 30.2953 30.751 30.9376H17.3897C17.7079 30.2953 18.0579 29.6686 18.4363 29.0626ZM16.8218 32.1876H31.319C31.5728 32.7996 31.7932 33.4256 31.9793 34.0626H16.1615C16.3475 33.4256 16.568 32.7996 16.8218 32.1876H16.8218ZM15.5839 37.1876C15.6336 36.5574 15.723 35.9311 15.8516 35.3126H32.2892C32.4178 35.9311 32.5072 36.5574 32.5568 37.1876H15.5839Z" fill="#2A03CC"/>
</g>
<defs>
<clipPath id="clip0">
<rect width="39" height="50" fill="white"/>
</clipPath>
</defs>
</svg>
