<svg width="40" height="40" viewBox="0 0 40 40" fill="none" xmlns="http://www.w3.org/2000/svg">
<path d="M4.70812 2.75578L12.5169 10.4095L10.0137 12.9627L2.205 5.30891L4.70812 2.75578ZM4.69062 0.988281L0.4375 5.32578L10.0312 14.7302L14.285 10.392L4.69062 0.988281Z" fill="#2A03CC"/>
<path d="M16.3487 14.1679L37.285 34.6916L34.7837 37.2448L13.8463 16.7204L16.3487 14.1679ZM16.3312 12.4004L12.0781 16.7379L34.8 39.0123L39.0519 34.6748L16.3312 12.4004Z" fill="#2A03CC"/>
<path d="M36.118 27.7946L34.873 27.6858C35.0048 26.1764 34.4592 25.5333 33.7042 24.6421C33.2642 24.1227 32.7655 23.5346 32.3817 22.7139C31.8061 21.4827 31.7211 19.5064 31.9342 18.1908C32.0192 17.6664 32.1673 17.1114 32.3236 16.5239C33.0261 13.8877 33.8223 10.8989 29.6836 8.39457L30.3305 7.3252C35.2711 10.3152 34.2655 14.0902 33.5311 16.8458C33.383 17.4027 33.243 17.9277 33.168 18.3908C32.9586 19.6833 33.1067 21.3139 33.5142 22.1839C33.8267 22.8533 34.2492 23.3514 34.658 23.8339C35.463 24.7833 36.2955 25.7664 36.118 27.7946Z" fill="#2A03CC"/>
<path d="M39.6558 27.1246L38.4108 27.0159C38.5427 25.5059 37.997 24.8628 37.242 23.9715C36.802 23.4521 36.3033 22.864 35.9195 22.0434C35.3433 20.8115 35.2589 18.8359 35.4733 17.5203C35.5583 16.9965 35.7064 16.4415 35.8627 15.854C36.5645 13.2178 37.3608 10.229 33.2227 7.72465L33.8695 6.65527C38.8095 9.6459 37.8045 13.4203 37.0702 16.1759C36.922 16.7328 36.782 17.2578 36.707 17.7209C36.4964 19.0134 36.6439 20.644 37.0514 21.514C37.3645 22.1828 37.787 22.6815 38.1958 23.164C39.0008 24.1134 39.8333 25.0959 39.6558 27.1246Z" fill="#2A03CC"/>
</svg>
