<svg width="27" height="36" viewBox="0 0 27 36" fill="none" xmlns="http://www.w3.org/2000/svg">
<path d="M13.8084 3.3121V0.600098H12.8334V3.3121C5.54473 3.5633 0.304688 9.4289 0.304688 17.4501C0.304688 21.6657 1.67671 25.9957 4.06897 29.3301C5.40238 31.1885 6.94639 32.6021 8.61052 33.5281V35.6001H9.58552V34.0125C10.6358 34.4645 11.7254 34.7233 12.8334 34.7829V35.6001H13.8084V34.7829C14.9262 34.7229 16.0256 34.4609 17.0841 34.0017V35.6001H18.059V33.5125C19.7123 32.5861 21.2465 31.1777 22.5725 29.3297C24.9648 25.9953 26.3368 21.6653 26.3368 17.4497C26.3372 9.4289 21.0971 3.5633 13.8084 3.3121ZM13.8084 6.9381C15.5736 7.1213 21.4329 8.1917 24.0062 14.3049C21.782 10.8813 18.1312 8.7593 13.8084 8.6105V6.9381ZM25.0861 14.4025C22.3916 7.3841 15.6453 6.1477 13.8084 5.9413V4.3117C19.6764 4.5205 23.9894 8.4893 25.0861 14.4025ZM12.8334 4.3117V8.6105C7.47172 8.7949 3.14311 12.0161 1.28866 16.9897C1.47742 9.6717 6.14611 4.5497 12.8334 4.3117ZM1.47391 20.1585C2.42278 14.0105 6.95302 9.8301 12.8334 9.6105V28.4589H10.7068V29.4589H12.8334V29.7561H11.6166V30.7561H12.8334V33.7813C7.39645 33.4361 2.48674 27.3681 1.47391 20.1585ZM13.8084 33.7813V30.7561H14.932V29.7561H13.8084V29.4589H16.2319V28.4589H13.8084V9.6105C19.6893 9.8297 24.2191 14.0101 25.1684 20.1581C24.1555 27.3677 19.2458 33.4361 13.8084 33.7813Z" fill="#2A03CC"/>
<path d="M11.3974 18.7387L11.9504 17.9147C7.1768 14.5447 3.94214 17.9479 3.91016 17.9827L4.61762 18.6707C4.64453 18.6423 7.30316 15.8471 11.3974 18.7387Z" fill="#2A03CC"/>
<path d="M14.9961 17.9827L15.7036 18.6707C15.7301 18.6427 18.3903 15.8479 22.4833 18.7387L23.0363 17.9147C18.2627 14.5447 15.0281 17.9479 14.9961 17.9827Z" fill="#2A03CC"/>
<path d="M11.944 20.7237L11.5252 20.3697C10.3045 19.3381 9.06155 18.8149 7.82993 18.8149C5.70638 18.8149 4.41274 20.3685 4.35892 20.4345L4.07812 20.7777L4.38037 21.1013C5.40101 22.1941 6.55424 22.7481 7.8077 22.7481C9.90317 22.7481 11.4897 21.1797 11.5564 21.1129L11.944 20.7237ZM7.77494 21.0509C7.6162 21.0509 7.48712 20.9185 7.48712 20.7557C7.48712 20.5929 7.6162 20.4605 7.77494 20.4605C7.93367 20.4605 8.06276 20.5929 8.06276 20.7557C8.06276 20.9185 7.93367 21.0509 7.77494 21.0509ZM6.75743 19.9957C6.60494 20.2097 6.51251 20.4709 6.51251 20.7553C6.51251 21.0713 6.62756 21.3573 6.81164 21.5821C6.3335 21.4225 5.87369 21.1477 5.43611 20.7549C5.7173 20.5133 6.17165 20.1929 6.75743 19.9957ZM8.70509 21.6245C8.90945 21.3941 9.03776 21.0909 9.03776 20.7557C9.03776 20.4449 8.92583 20.1633 8.74721 19.9393C9.3014 20.0861 9.86378 20.3621 10.4293 20.7689C10.0428 21.0565 9.43088 21.4329 8.70509 21.6245Z" fill="#2A03CC"/>
<path d="M15.4624 20.4612L15.1602 20.7848L15.441 21.128C15.4952 21.194 16.7884 22.7476 18.912 22.7476H18.9123C20.1432 22.7476 21.3865 22.2244 22.6072 21.1928L23.0257 20.8388L22.638 20.4492C22.5717 20.3824 20.9848 18.814 18.8897 18.814C17.6363 18.8144 16.4834 19.3684 15.4624 20.4612ZM18.857 21.1024C18.6982 21.1024 18.5691 20.97 18.5691 20.8072C18.5691 20.6444 18.6982 20.512 18.857 20.512C19.0157 20.512 19.1448 20.6444 19.1448 20.8072C19.1448 20.97 19.0161 21.1024 18.857 21.1024ZM17.8933 19.98C17.7096 20.2052 17.5941 20.4908 17.5941 20.8068C17.5941 21.0912 17.6866 21.3524 17.8391 21.5664C17.2533 21.3688 16.7993 21.0488 16.5177 20.8072C16.9553 20.4144 17.4155 20.14 17.8933 19.98ZM19.8296 21.6236C20.0082 21.4 20.1202 21.118 20.1202 20.8072C20.1202 20.472 19.9923 20.1688 19.7871 19.9384C20.5129 20.13 21.1248 20.5068 21.5109 20.794C20.9454 21.2008 20.3838 21.4764 19.8296 21.6236Z" fill="#2A03CC"/>
<path d="M15.5575 22.2837L14.5849 22.2109C14.574 22.3689 14.3357 26.0925 16.8465 27.5341L17.3227 26.6613C15.3559 25.5325 15.5552 22.3161 15.5575 22.2837Z" fill="#2A03CC"/>
<path d="M22.9524 21.915C20.7583 24.4458 16.9417 23.4658 16.9035 23.4562L16.6562 24.4234C16.7335 24.4442 17.5673 24.661 18.6987 24.661C20.192 24.661 22.2036 24.2838 23.6809 22.5802L22.9524 21.915Z" fill="#2A03CC"/>
<path d="M17.0849 12.2334H14.5117V13.2334H17.0849V12.2334Z" fill="#2A03CC"/>
<path d="M21.3683 14.1133H14.5117V15.1133H21.3683V14.1133Z" fill="#2A03CC"/>
<path d="M17.6914 28.9499L18.1165 29.8499C18.2179 29.7999 20.6113 28.5943 22.0341 26.3551L21.2174 25.8091C19.946 27.8099 17.714 28.9391 17.6914 28.9499Z" fill="#2A03CC"/>
</svg>
