<svg width="29" height="33" viewBox="0 0 29 33" fill="none" xmlns="http://www.w3.org/2000/svg">
<path d="M20.0776 32.7549C21.4212 32.7549 21.9995 32.1541 22.8626 30.7143C23.6561 29.3842 24.6013 26.7268 24.6004 21.612C24.5747 17.9839 25.5398 16.007 26.5383 14.2794L26.6669 14.0475C27.5624 12.4344 28.3365 11.042 28.3689 7.6263C28.3689 7.5186 28.366 7.40848 28.3641 7.29256L28.3602 7.07281C28.2703 4.66176 27.3811 2.95345 25.5534 1.69094C24.0641 0.687302 21.9696 0.135254 19.6569 0.135254H19.5795C17.718 0.135254 15.7607 0.515361 14.3488 1.14952L14.1835 1.22293L14.0278 1.1529C12.9239 0.651079 11.4584 0.304781 9.90001 0.17824C9.87438 0.175342 9.8473 0.174376 9.82265 0.175341L7.28225 0.210116C7.25469 0.210116 7.22761 0.212048 7.20102 0.214946C5.47293 0.410071 3.95614 0.921549 2.80972 1.6977C0.987825 2.95056 0.0976708 4.65693 0.00773663 7.08102C0.00290146 7.27904 0 7.45919 0 7.6321C0.0265934 11.0241 0.797803 12.4146 1.69134 14.0239L1.84075 14.2948C2.83051 16.0051 3.79464 17.9795 3.76708 21.6168C3.76611 26.7278 4.70945 29.3842 5.50387 30.7153C6.37565 32.1642 6.87126 32.7539 8.2899 32.7539C9.60651 32.7539 10.3893 31.6088 10.4817 30.4892C10.5412 29.8845 10.5518 29.1856 10.5639 28.4462C10.5905 26.7418 10.6243 24.62 11.2635 22.4606L11.2785 22.4104C11.5478 21.5357 11.8529 20.5446 12.4438 19.6521C12.7997 19.1155 13.5612 18.5731 14.3261 18.5731C14.9426 18.5731 15.4764 18.9286 15.9125 19.6303C16.4831 20.5509 16.8211 21.5328 17.1015 22.4538C17.7436 24.6084 18.0221 27.1083 17.8447 29.1412C17.7306 30.4346 17.9704 31.4146 18.5579 32.055C19.1526 32.7042 19.8706 32.7539 20.0766 32.7539H20.0776V32.7549ZM11.0721 18.7465C10.3497 19.8371 9.99381 20.9972 9.7066 21.9293L9.68871 21.9868C8.98326 24.3708 8.94748 26.6167 8.91895 28.4211C8.90783 29.1567 8.89719 29.7918 8.84352 30.3429C8.84352 30.3506 8.76713 31.1127 8.28941 31.1127C7.74352 31.1127 7.65939 31.1127 6.91429 29.8744C6.35244 28.9311 5.41007 26.6056 5.41104 21.6241C5.42119 20.1684 5.28145 18.9431 5.0513 17.8829C5.23842 17.596 5.48453 17.3299 5.59139 17.3091C5.60106 17.313 5.63974 17.3328 5.69728 17.3883C7.04194 18.688 8.73521 18.3422 9.81587 17.4231C10.4768 16.8609 11.0701 16.3968 11.6194 16.4789C11.7988 16.5421 12.1019 16.9947 12.3524 17.5289C11.8099 17.8665 11.3651 18.306 11.0721 18.7465ZM14.3256 16.9319C14.183 16.9319 14.0442 16.9469 13.9055 16.9648C13.5428 16.1335 12.8703 14.999 11.8645 14.8565C10.5271 14.6643 9.45566 15.5723 8.7502 16.1736C8.43834 16.4388 7.62941 16.9725 6.8408 16.2084C6.27702 15.6641 5.7084 15.6264 5.32884 15.6935C5.02277 15.7462 4.75442 15.8858 4.5175 16.0606C4.14616 15.0637 3.70326 14.2354 3.27196 13.4892L3.12835 13.2308C2.28027 11.7007 1.66668 10.5952 1.64396 7.62727C1.64396 7.47271 1.64686 7.30367 1.65073 7.13125C1.72084 5.2312 2.34651 4.01167 3.73614 3.05536C4.65047 2.43763 5.89794 2.0213 7.34559 1.8537L9.80572 1.8199C11.1451 1.93195 12.4332 2.23381 13.3528 2.65304L13.8223 2.86169L17.205 4.65307C17.3278 4.71827 17.4588 4.74918 17.5894 4.74918C17.8838 4.74918 18.1681 4.59076 18.3166 4.31256C18.5288 3.91266 18.3761 3.41567 17.9757 3.20219L16.1683 2.24589C17.2088 1.95272 18.4263 1.77884 19.5805 1.77884H19.6579C21.6185 1.77884 23.4327 2.24395 24.627 3.0486C26.0219 4.01263 26.6471 5.23409 26.7177 7.11531L26.7216 7.32589C26.7235 7.4307 26.7254 7.53164 26.7254 7.62099C26.6969 10.6121 26.0814 11.7196 25.2304 13.2526L25.1076 13.4742C24.8518 13.9167 24.5921 14.3876 24.3456 14.9024L23.1556 14.8507C21.3734 14.7744 20.9619 16.5489 20.7458 17.5033C20.723 17.6023 20.6965 17.7211 20.6674 17.8356C20.2927 17.4593 19.6758 16.9638 18.7382 17.1198C17.9564 17.2507 17.366 17.7544 16.9506 18.2698C16.2457 17.4043 15.3333 16.9319 14.3256 16.9319ZM19.4819 29.2847C19.6791 27.0233 19.3856 24.3636 18.6754 21.9815C18.4742 21.3193 18.2204 20.5808 17.8756 19.8375C18.0966 19.4318 18.5177 18.8199 19.008 18.7378C19.1874 18.7074 19.2952 18.7716 19.6284 19.1247C19.902 19.4144 20.6292 20.1829 21.5329 19.556C22.045 19.2005 22.192 18.5514 22.3481 17.8646C22.6204 16.6648 22.7949 16.4808 23.0831 16.49L23.6933 16.5166C23.2475 17.8597 22.9414 19.4956 22.9569 21.6188C22.9579 26.6041 22.0145 28.9306 21.4527 29.8729C20.7105 31.1098 20.5509 31.1132 20.0834 31.1132C20.0558 31.1113 19.8982 31.0944 19.7594 30.935C19.6148 30.7703 19.3895 30.3371 19.4819 29.2847Z" fill="#D97014"/>
<path d="M8.86827 21.8361C8.6154 21.4598 8.10529 21.3579 7.72766 21.6106C7.35101 21.8622 7.24995 22.3728 7.50186 22.7491L7.54731 22.8182C7.70591 23.0548 7.96652 23.1824 8.23197 23.1824C8.38863 23.1824 8.54722 23.1379 8.68793 23.0437C9.06458 22.7921 9.16564 22.2815 8.91373 21.9052L8.86827 21.8361Z" fill="#D97014"/>
<path d="M7.27013 19.4455L7.22371 19.3775C6.97179 19.0003 6.46168 18.8984 6.08405 19.151C5.70642 19.4026 5.60537 19.913 5.85728 20.2901L5.9037 20.3582C6.06229 20.5948 6.32194 20.7233 6.5874 20.7233C6.74406 20.7233 6.90362 20.6779 7.04335 20.5847C7.42147 20.3321 7.52252 19.8227 7.27013 19.4455Z" fill="#D97014"/>
<path d="M7.66526 24.4727C7.21171 24.4727 6.84375 24.8407 6.84375 25.2933V25.3754C6.84375 25.829 7.2122 26.197 7.66526 26.197C8.11929 26.197 8.48773 25.829 8.48773 25.3754V25.2933C8.48773 24.8407 8.11929 24.4727 7.66526 24.4727Z" fill="#D97014"/>
<path d="M20.7378 27.3957C20.7963 27.4078 20.8548 27.4146 20.9133 27.4146C21.2909 27.4146 21.6318 27.1523 21.715 26.7674L21.7329 26.6873C21.8291 26.2449 21.5477 25.8074 21.1038 25.7113C20.6609 25.6152 20.2228 25.8953 20.1266 26.3386L20.1087 26.4188C20.0125 26.8616 20.2939 27.2982 20.7378 27.3957Z" fill="#D97014"/>
<path d="M21.3628 24.5068C21.4213 24.5189 21.4798 24.5256 21.5383 24.5256C21.9159 24.5256 22.2568 24.2634 22.34 23.8784L22.3579 23.7982C22.4541 23.3558 22.1727 22.9181 21.7288 22.822C21.2859 22.7278 20.8478 23.0061 20.7516 23.4495L20.7337 23.5296C20.6375 23.9731 20.9189 24.4107 21.3628 24.5068Z" fill="#D97014"/>
</svg>
