<svg width="28" height="33" viewBox="0 0 28 33" fill="none" xmlns="http://www.w3.org/2000/svg">
<path d="M2.2341 14.4775C3.18131 16.1114 4.10386 17.9984 4.07823 21.4793C4.07533 26.3826 4.98241 28.938 5.74636 30.2223C6.58864 31.621 7.06926 32.1909 8.44825 32.1909C9.73633 32.1909 10.4974 31.0747 10.5815 29.989C10.6391 29.408 10.6497 28.7361 10.6608 28.0261C10.6874 26.3941 10.7198 24.3632 11.3314 22.2994L11.3508 22.2352C11.6066 21.403 11.8972 20.4597 12.4571 19.6155C12.7936 19.1079 13.5121 18.5949 14.2335 18.5949C14.8123 18.5949 15.3146 18.9306 15.7271 19.5947C16.2677 20.4646 16.5931 21.4078 16.8629 22.2926C17.4774 24.3564 17.7429 26.7491 17.5736 28.6903C17.4644 29.9392 17.6979 30.8873 18.2675 31.5089C18.8482 32.1421 19.5488 32.1909 19.7499 32.1909H19.7509C21.0559 32.1909 21.6149 31.6109 22.4499 30.2194C23.2129 28.9404 24.1209 26.3855 24.1175 21.475C24.0938 18.0018 25.0169 16.1124 25.9728 14.4611L26.1 14.2312C26.9601 12.6822 27.7023 11.3444 27.7323 8.06684C27.7323 7.9601 27.7299 7.85191 27.7279 7.73841L27.7241 7.53266C27.637 5.20902 26.7798 3.5635 25.0174 2.34734C23.5833 1.38137 21.568 0.849609 19.3428 0.849609H19.2746C17.4755 0.849609 15.5927 1.21619 14.2432 1.8262L14.0976 1.89044L13.9618 1.83007C12.8956 1.34563 11.4867 1.01286 9.99356 0.893078C9.96793 0.891146 9.94279 0.89018 9.91716 0.890663L7.4817 0.92254C7.45414 0.92254 7.42754 0.924472 7.40047 0.92737C5.73862 1.11477 4.27937 1.60645 3.17261 2.35362C1.41648 3.56398 0.558721 5.20951 0.472171 7.55488L0.468303 7.77801C0.466369 7.87896 0.464435 7.97555 0.464919 8.07408C0.492479 11.3371 1.23468 12.6745 2.0934 14.223L2.2341 14.4775ZM2.11129 7.80989L2.11467 7.59303C2.18188 5.78377 2.77709 4.62123 4.09902 3.70984C4.89586 3.17131 5.96056 2.797 7.19159 2.61298L10.4597 5.97503H6.73757C6.41264 5.97503 6.11818 6.1663 5.98667 6.46333C5.85467 6.75988 5.91027 7.10618 6.12785 7.34719L10.6492 12.3417C10.8117 12.5209 11.0346 12.6127 11.2594 12.6127C11.4557 12.6127 11.653 12.5427 11.8101 12.4007C12.1471 12.0969 12.1732 11.5772 11.8686 11.2415L8.58992 7.61815H12.4039C12.7341 7.61815 13.0325 7.42109 13.1606 7.11729C13.2887 6.8135 13.2234 6.46188 12.9933 6.22522L9.41141 2.53957L9.89928 2.53329C11.1748 2.63906 12.4053 2.92741 13.2882 3.32828L13.7389 3.52776L16.9789 5.24525C17.1017 5.31045 17.2332 5.34088 17.3633 5.34088C17.6578 5.34088 17.9421 5.18246 18.09 4.90523C18.3028 4.50435 18.15 4.00736 17.7496 3.79485L16.0902 2.91533C17.064 2.64872 18.1959 2.49224 19.2746 2.49224H19.3428C21.2164 2.49224 22.9503 2.9361 24.0909 3.70453C25.4187 4.62027 26.0139 5.78426 26.0806 7.57516L26.084 7.77077C26.0859 7.87316 26.0879 7.97121 26.0883 8.06056C26.0618 10.9135 25.4748 11.9713 24.6625 13.4352L24.5416 13.654C23.5272 15.4067 22.447 17.6024 22.4736 21.4812C22.4775 26.2526 21.5757 28.4777 21.039 29.378C20.3393 30.543 20.1895 30.5497 19.7577 30.5497C19.7311 30.5478 19.5913 30.5299 19.4681 30.3875C19.3351 30.2339 19.1248 29.8262 19.2113 28.8337C19.4013 26.6661 19.1194 24.1116 18.4372 21.8203C18.1335 20.8239 17.7641 19.7589 17.124 18.7292C16.4122 17.584 15.3857 16.9537 14.2335 16.9537C12.8647 16.9537 11.6665 17.8347 11.0868 18.7094C10.3949 19.7517 10.0535 20.863 9.77936 21.7546L9.75712 21.827C9.0802 24.1145 9.0449 26.2691 9.01783 28.001C9.00671 28.7067 8.99607 29.3162 8.94433 29.846C8.94433 29.8538 8.87761 30.5497 8.44873 30.5497C7.92895 30.5497 7.86223 30.5497 7.15774 29.3809C6.62056 28.4782 5.71928 26.2512 5.72315 21.487C5.75168 17.5985 4.67102 15.4058 3.66531 13.6704L3.53138 13.428C2.71907 11.9645 2.13256 10.9068 2.10887 8.06732C2.1079 7.98521 2.10936 7.89973 2.11129 7.80989Z" fill="#D97014"/>
</svg>
