<svg width="35" height="31" viewBox="0 0 35 31" fill="none" xmlns="http://www.w3.org/2000/svg">
<path d="M8.10429 24.7485C8.30736 24.8219 8.51528 24.8596 8.72174 24.8596C9.62446 24.8596 10.2622 24.167 10.5272 23.5889C10.7341 23.1576 10.9295 22.6485 11.1355 22.1095C11.603 20.89 12.1837 19.372 13.2291 17.9616C13.6473 17.4081 14.1216 16.7798 14.7647 16.305C15.0442 16.0983 15.4416 15.9713 15.8019 15.9713C16.4488 15.9713 16.8395 16.3393 16.9986 17.0976C17.163 17.8834 17.1499 18.6769 17.1098 19.4106C17.0058 21.1257 16.5518 22.9885 15.8933 24.395C15.4484 25.3498 15.3604 26.1733 15.6346 26.8418C15.9189 27.5397 16.4885 27.799 16.6659 27.8662C16.8748 27.9415 17.1562 28.0294 17.4753 28.0294C18.1242 28.0294 18.6754 27.6841 19.4094 27.0891C20.3576 26.3182 21.7733 24.6118 23.1397 20.8547C24.0681 18.2558 25.272 17.0966 26.4383 16.121L26.5968 15.9833C27.6944 15.0324 28.6416 14.2108 29.5821 11.6983C29.6125 11.6182 29.6416 11.5336 29.671 11.4467L29.7276 11.2839C30.3219 9.4486 30.1188 7.91996 29.0855 6.46618C28.2442 5.30799 26.8285 4.32512 25.1042 3.70159C23.9143 3.26642 22.5837 3.01672 21.4532 3.01672C21.268 3.01672 21.0906 3.02348 20.932 3.03604L20.8715 3.0399L20.8377 3.00802C20.153 2.33378 19.1613 1.68175 18.0454 1.17076C18.0227 1.16013 17.998 1.15047 17.9748 1.14178L16.121 0.494583C16.0954 0.485889 16.0702 0.478161 16.0436 0.471883C14.7207 0.152148 13.4525 0.117373 12.3679 0.386395C10.649 0.834602 9.51035 1.87446 8.77734 3.67889L8.626 4.073C7.73053 6.59031 7.92635 7.82626 8.15215 9.25685L8.1889 9.49448C8.45242 10.97 8.6289 12.6261 7.65994 15.2236C6.28772 18.9764 6.27176 21.1918 6.50143 22.393C6.75866 23.7202 6.98881 24.3438 8.10429 24.7485ZM9.20187 15.7945C10.3135 12.814 10.0973 10.8323 9.81013 9.22642L9.77532 9.0028C9.56934 7.69392 9.42042 6.74824 10.1708 4.63616L10.3077 4.27779C10.8357 2.97953 11.5759 2.29128 12.7736 1.97879C13.5671 1.7827 14.5689 1.81119 15.6181 2.05993L17.3946 2.68056C18.3142 3.1051 19.1463 3.64943 19.6922 4.18698L19.9756 4.45697L21.9503 6.64537C22.1127 6.82552 22.3366 6.91729 22.5614 6.91729C22.7568 6.91729 22.9545 6.84725 23.1112 6.70574C23.4482 6.40194 23.4758 5.88274 23.1716 5.5461L22.4362 4.73082C23.1276 4.82162 23.8611 4.99646 24.5419 5.2452C25.9431 5.75185 27.1142 6.54877 27.751 7.4249C28.4724 8.44061 28.5962 9.44377 28.1712 10.7599L28.1185 10.912C28.0919 10.9874 28.0667 11.0608 28.043 11.1265C27.2486 13.2444 26.5243 13.8732 25.5215 14.7416L25.3721 14.872C24.1029 15.9331 22.6591 17.3154 21.5939 20.2978C20.2928 23.8777 19.0177 25.2919 18.3737 25.8145C17.7911 26.2878 17.5643 26.3873 17.4768 26.3873C17.4294 26.3873 17.3482 26.3665 17.25 26.3317C17.0706 26.2429 17.059 25.7884 17.3849 25.0895C18.1358 23.4831 18.6343 21.4493 18.7523 19.5043C18.7977 18.6533 18.8118 17.7317 18.6087 16.761C18.2896 15.2386 17.2413 14.3291 15.8028 14.3291C15.0887 14.3291 14.3552 14.5668 13.7895 14.9836C12.9535 15.6003 12.3795 16.362 11.9178 16.973C11.9168 16.9759 11.8893 17.0107 11.8883 17.0126C10.7303 18.5755 10.1046 20.2094 9.60125 21.5227C9.39914 22.0511 9.22459 22.5075 9.04037 22.8915C8.96108 23.0639 8.79668 23.217 8.72319 23.217C8.71013 23.217 8.69128 23.2131 8.66758 23.2049C8.33589 23.0851 8.30978 23.0745 8.11589 22.0844C7.95972 21.2696 7.89492 19.37 9.20187 15.7945Z" fill="#D97014"/>
<path d="M4.32458 18.4598L3.78836 19.576C3.76756 19.6205 3.75064 19.6659 3.73759 19.7127C2.69512 23.4766 4.96524 28.5609 10.4503 30.2108C11.9008 30.6465 13.3446 30.8561 14.7265 30.8561C18.8006 30.8551 22.3288 29.0372 23.849 25.8751L27.1345 19.0409C27.1384 19.0341 27.4754 18.3116 28.0092 18.3116H33.4202C33.8742 18.3116 34.2427 17.9435 34.2427 17.491C34.2427 17.0375 33.8742 16.6694 33.4202 16.6694H28.0082C26.6993 16.6694 25.8909 17.76 25.6361 18.3666L22.3665 25.1641C20.6839 28.6658 15.8719 30.1268 10.9236 28.6382C6.42256 27.2844 4.51315 23.2322 5.30273 20.2179L5.86361 19.051C6.01834 18.6975 6.07878 18.0991 5.73886 17.5803C5.33754 16.9669 4.56198 16.6689 3.36866 16.6689H0.821496C0.367957 16.6689 0 17.037 0 17.4905C0 17.9435 0.36844 18.3111 0.821496 18.3111H3.36866C3.96677 18.3116 4.22932 18.4096 4.32458 18.4598Z" fill="#D97014"/>
</svg>
