<svg width="25" height="36" viewBox="0 0 25 36" fill="none" xmlns="http://www.w3.org/2000/svg">
<path d="M15.7219 35.218C16.2611 35.8066 16.9161 35.853 17.1036 35.853H17.1046C18.2959 35.853 18.8257 35.304 19.5639 34.073C20.2362 32.9448 21.0381 30.6978 21.0367 26.391C21.0164 23.3998 21.8114 21.7705 22.6356 20.3443L22.744 20.1486C23.5014 18.7837 24.1564 17.6046 24.1836 14.7132L24.1767 14.2452C24.0995 12.1786 23.3351 10.7138 21.7639 9.62762C20.4954 8.7732 18.7154 8.30225 16.7538 8.30225H16.688C15.1128 8.30225 13.456 8.62445 12.2568 9.1631L12.1826 9.19571L12.1168 9.16656C11.1768 8.7391 9.93409 8.44556 8.61813 8.33931C8.59092 8.33733 8.56618 8.33832 8.53897 8.33634L6.4171 8.3655C6.38989 8.3655 6.36219 8.36748 6.33399 8.37044C4.86714 8.53648 3.5764 8.97284 2.59636 9.63504C1.03204 10.7123 0.266708 12.1756 0.189531 14.2556C0.185573 14.4216 0.183594 14.5733 0.183594 14.7196C0.205856 17.5932 0.85988 18.7709 1.61631 20.1348L1.74197 20.3606C2.55629 21.77 3.35081 23.3954 3.32855 26.397C3.32855 30.6998 4.12852 32.9458 4.80134 34.075C5.5454 35.3114 6.00253 35.853 7.2616 35.853C8.45487 35.853 9.16331 34.8242 9.24544 33.8215C9.2959 33.31 9.30431 32.7229 9.31519 32.1017C9.33745 30.6879 9.36565 28.9291 9.9054 27.1061C10.1265 26.3851 10.3779 25.5697 10.8592 24.8438C11.1338 24.4297 11.7171 24.0106 12.3018 24.0106C12.7599 24.0106 13.1617 24.2839 13.4961 24.8215C13.9616 25.5717 14.2411 26.3812 14.4722 27.1407C15.0035 28.9217 15.2326 30.9879 15.0866 32.6686C14.9872 33.7923 15.2009 34.6502 15.7219 35.218ZM11.4247 10.699L11.8383 10.8833C12.0555 10.9807 12.3048 10.9797 12.5225 10.8843L12.943 10.698C13.7692 10.3264 14.916 10.0763 16.0504 10.0062C15.5952 11.2312 14.0413 12.1366 12.195 12.1366C10.3561 12.1366 8.80711 11.2381 8.34455 10.021L8.52116 10.019C9.61796 10.1099 10.6732 10.3565 11.4247 10.699ZM14.9244 23.936C14.2807 22.9002 13.3492 22.3299 12.3008 22.3299C11.0621 22.3299 9.9801 23.125 9.4552 23.9147C8.84075 24.8433 8.53897 25.8237 8.29656 26.6114C8.29557 26.6144 8.28221 26.6589 8.28122 26.6619C7.68607 28.6722 7.65589 30.5594 7.63165 32.0746C7.62175 32.6863 7.61334 33.2146 7.56882 33.6707C7.56882 33.6767 7.50797 34.1728 7.26061 34.1728C6.86334 34.1728 6.82179 34.1728 6.24395 33.2136C5.78287 32.4398 5.01011 30.5258 5.01011 26.4044C5.03534 22.9867 4.08745 21.0594 3.20536 19.5354L3.08663 19.3209C2.38907 18.0622 1.88445 17.1529 1.86516 14.7137C1.86516 14.5852 1.86714 14.4444 1.8701 14.3055C1.927 12.7735 2.42964 11.7911 3.54474 11.0237C4.28584 10.5216 5.3015 10.1841 6.48241 10.0457L6.60708 10.0437C7.07014 12.1835 9.39583 13.8168 12.195 13.8168C14.9961 13.8168 17.3238 12.1805 17.7839 10.0388C18.9831 10.1643 20.0566 10.5038 20.816 11.0158C21.9361 11.7896 22.4382 12.7745 22.4956 14.2847L22.5015 14.7058C22.4783 17.1623 21.9732 18.0736 21.2736 19.3342L21.1712 19.5185C20.2802 21.0599 19.3314 22.9911 19.3546 26.3985C19.3566 30.5238 18.5814 32.4388 18.1198 33.2117C17.5518 34.1605 17.4445 34.1728 17.118 34.1728C16.8909 34.1456 16.6841 33.7113 16.7623 32.8138C16.9285 30.9058 16.6811 28.6628 16.083 26.6559C15.8163 25.7832 15.4918 24.8497 14.9244 23.936Z" fill="#D97014"/>
<path d="M17.8734 2.12907C17.8734 0.874329 17.1759 0.154297 15.9583 0.154297C15.5012 0.154297 15.0015 0.241274 14.4227 0.341594C13.7494 0.459211 12.9851 0.591654 12.1965 0.591654C11.4079 0.591654 10.6435 0.459211 9.97022 0.341594C9.39139 0.241274 8.89172 0.154297 8.4346 0.154297C7.21709 0.154297 6.51953 0.874329 6.51953 2.12907C6.51953 4.63856 9.06537 6.68005 12.1965 6.68005C15.3276 6.68005 17.8734 4.63856 17.8734 2.12907ZM8.20258 2.12907C8.20258 1.97835 8.2189 1.89236 8.23078 1.85085C8.26442 1.84294 8.32824 1.83454 8.43559 1.83454C8.74677 1.83454 9.18064 1.90965 9.68229 1.99663C10.3868 2.11919 11.2629 2.27189 12.1975 2.27189C13.132 2.27189 14.0081 2.11919 14.7126 1.99663C15.2143 1.90965 15.6482 1.83454 15.9593 1.83454C16.0667 1.83454 16.1305 1.84343 16.1641 1.85085C16.1755 1.89236 16.1923 1.97835 16.1923 2.12907C16.1923 3.71196 14.401 4.99981 12.198 4.99981C9.99496 4.99981 8.20258 3.71196 8.20258 2.12907Z" fill="#D97014"/>
</svg>
