<svg width="28" height="33" viewBox="0 0 28 33" fill="none" xmlns="http://www.w3.org/2000/svg">
<path d="M1.76926 14.4784C2.71647 16.1133 3.63902 18.0003 3.61388 21.4802C3.61049 26.3825 4.51757 28.9389 5.28153 30.2231C6.12381 31.6219 6.60395 32.1918 7.98294 32.1918C9.27151 32.1918 10.0326 31.0756 10.1167 29.9899C10.1738 29.4088 10.1849 28.737 10.196 28.027C10.2221 26.395 10.255 24.3651 10.8661 22.3003L10.8855 22.238C11.1408 21.4058 11.4314 20.4616 11.9923 19.6164C12.3288 19.1088 13.0468 18.5958 13.7692 18.5958C14.3475 18.5958 14.8498 18.9315 15.2623 19.5956C15.8024 20.4645 16.1278 21.4078 16.3976 22.2935C17.0126 24.3583 17.2785 26.75 17.1088 28.6911C16.9991 29.9401 17.2331 30.8882 17.8032 31.5098C18.3839 32.143 19.084 32.1918 19.2847 32.1918H19.2856C20.5906 32.1918 21.1496 31.6117 21.9856 30.2202C22.7476 28.9403 23.6561 26.3858 23.6523 21.4759C23.6286 18.0037 24.5521 16.1133 25.508 14.462L25.6356 14.2311C26.4953 12.6822 27.2375 11.3448 27.2675 8.06779C27.2675 7.96009 27.2651 7.84997 27.2627 7.7355L27.2593 7.5341C27.1723 5.21047 26.315 3.56447 24.5521 2.3488C23.1185 1.38284 21.1032 0.851074 18.8775 0.851074H18.8098C17.0107 0.851074 15.1274 1.21766 13.7784 1.82766L13.6333 1.8919L13.4965 1.83153C12.4313 1.3471 11.0218 1.01432 9.52825 0.894543C9.50311 0.892611 9.47749 0.891645 9.45186 0.892128L7.01639 0.924005C6.98931 0.924005 6.96223 0.925937 6.93516 0.928834C5.27331 1.11623 3.81357 1.60791 2.70729 2.35508C0.951153 3.56543 0.0929103 5.21095 0.00684435 7.55728L0.00345975 7.7867C0.00152568 7.88474 -0.000408369 7.97892 7.51474e-05 8.07504C0.0276356 11.3385 0.76935 12.675 1.62856 14.2239L1.76926 14.4784ZM1.64983 7.59399C1.71704 5.78473 2.31225 4.6222 3.63419 3.71081C4.50693 3.12157 5.69735 2.72553 7.07924 2.56469L9.43445 2.53378C10.7105 2.63956 11.9405 2.9279 12.8229 3.32925L13.2755 3.52921L16.5136 5.24573C16.6364 5.31093 16.7684 5.34136 16.898 5.34136C17.1925 5.34136 17.4773 5.18294 17.6252 4.90571C17.8375 4.50483 17.6852 4.00784 17.2843 3.79533L15.6249 2.91582C16.5992 2.64922 17.7306 2.49273 18.8098 2.49273H18.8775C20.7512 2.49273 22.4851 2.93659 23.6257 3.70501C24.9534 4.62075 25.5486 5.78425 25.6158 7.57563L25.6192 7.76641C25.6211 7.87025 25.6231 7.97023 25.6231 8.06103C25.5975 10.913 25.01 11.9713 24.1982 13.4347L24.0768 13.6544C23.0619 15.4072 21.9822 17.6028 22.0083 21.4826C22.0122 26.2521 21.1104 28.4781 20.5737 29.3784C19.8741 30.5434 19.7247 30.5501 19.2924 30.5501C19.2658 30.5482 19.1261 30.5303 19.0032 30.3878C18.8703 30.2342 18.6595 29.8276 18.7465 28.8341C18.9365 26.6665 18.6551 24.112 17.9719 21.8207C17.6683 20.8238 17.2989 19.7593 16.6592 18.7296C15.9474 17.5845 14.9214 16.9542 13.7692 16.9542C12.3999 16.9542 11.2017 17.8351 10.622 18.7098C9.92957 19.7531 9.58821 20.8644 9.31357 21.7579L9.2923 21.8279C8.61441 24.1153 8.5796 26.2699 8.55204 28.0019C8.54091 28.7075 8.53076 29.3171 8.47902 29.8479C8.47854 29.8546 8.4123 30.5506 7.98294 30.5506C7.46315 30.5506 7.39643 30.5506 6.69243 29.3818C6.15524 28.4781 5.25397 26.2511 5.25784 21.4879C5.28636 17.6004 4.20619 15.4072 3.20047 13.6713L3.06606 13.4284C2.25423 11.9655 1.66724 10.9077 1.64355 8.06827L1.64983 7.59399Z" fill="#D97014"/>
</svg>
