<svg width="11" height="19" viewBox="0 0 11 19" fill="none" xmlns="http://www.w3.org/2000/svg">
<path d="M10.2487 0.00395327L7.78487 0C5.01682 0 3.22799 1.8353 3.22799 4.67593V6.83184H0.750698C0.53663 6.83184 0.363281 7.00539 0.363281 7.21946V10.3431C0.363281 10.5572 0.536828 10.7306 0.750698 10.7306H3.22799V18.6126C3.22799 18.8267 3.40134 19 3.6154 19H6.84756C7.06163 19 7.23498 18.8265 7.23498 18.6126V10.7306H10.1315C10.3456 10.7306 10.5189 10.5572 10.5189 10.3431L10.5201 7.21946C10.5201 7.11667 10.4792 7.01824 10.4067 6.9455C10.3341 6.87276 10.2353 6.83184 10.1325 6.83184H7.23498V5.00424C7.23498 4.12583 7.4443 3.6799 8.58856 3.6799L10.2483 3.67931C10.4622 3.67931 10.6355 3.50576 10.6355 3.29189V0.391374C10.6355 0.177699 10.4624 0.0043486 10.2487 0.00395327Z" fill="white"/>
</svg>
