<svg width="34" height="40" viewBox="0 0 34 40" fill="none" xmlns="http://www.w3.org/2000/svg">
<path d="M16.9343 21.1978C17.1739 21.1978 17.3981 21.083 17.5383 20.8888C18.2345 19.9239 24.3383 11.3494 24.3383 7.53975C24.3383 3.45755 21.017 0.13623 16.9348 0.13623C12.8521 0.13623 9.53125 3.45755 9.53125 7.53975C9.53125 11.3494 15.635 19.9239 16.3313 20.8888C16.4706 21.083 16.6948 21.1978 16.9343 21.1978ZM16.9361 10.1732C15.4464 10.1732 14.2345 8.96085 14.2345 7.47161C14.2345 5.98238 15.4469 4.77008 16.9361 4.77008C18.4244 4.77008 19.6359 5.98238 19.6359 7.47161C19.6359 8.96085 18.4244 10.1732 16.9361 10.1732Z" fill="#D97014"/>
<path d="M8.60913 10.4131C9.03726 10.1287 9.15375 9.55157 8.86935 9.12344C8.58496 8.69443 8.00649 8.57927 7.57924 8.86278C6.1643 9.80256 4.92386 10.9344 3.87375 12.2078C3.73968 12.3006 3.62583 12.4267 3.55375 12.5867C3.54759 12.5995 3.54539 12.6136 3.54056 12.6267C1.28034 15.5494 0.0078125 19.1652 0.0078125 22.9705C0.0078125 26.9639 1.40122 30.6355 3.72254 33.5331C3.75155 33.5775 3.78452 33.6179 3.81968 33.6562C6.92649 37.4601 11.6504 39.8949 16.934 39.8949C22.141 39.8949 26.8047 37.5292 29.9115 33.8193C29.9348 33.7947 29.9559 33.77 29.9766 33.7428C32.3999 30.8149 33.8579 27.0597 33.8579 22.97C33.8579 19.047 32.4922 15.3028 30.0821 12.3248C30.0421 12.265 29.9977 12.2087 29.9458 12.1612C28.9718 10.9872 27.8377 9.93223 26.5529 9.04256C26.13 8.74981 25.5498 8.85531 25.2579 9.27905C24.9656 9.70146 25.0715 10.2812 25.494 10.5731C26.3181 11.1428 27.0702 11.7907 27.7533 12.4971C26.4039 13.0386 24.9564 13.4812 23.4289 13.8118C22.9261 13.9208 22.6074 14.4162 22.7164 14.9177C22.8104 15.3542 23.1964 15.6518 23.6245 15.6518C23.69 15.6518 23.7564 15.6443 23.8223 15.6311C25.668 15.2311 27.4043 14.6716 29.0118 13.981C30.7401 16.3045 31.7854 19.0975 31.9678 22.0404H23.2663C23.2395 20.7401 23.1467 19.4474 22.9779 18.1898C22.9098 17.6799 22.4377 17.3261 21.9322 17.3907C21.4228 17.4588 21.0645 17.927 21.1331 18.4368C21.2909 19.6127 21.3797 20.8223 21.4052 22.0404H11.8997C11.9335 20.4338 12.0768 18.8456 12.3392 17.3116C12.4263 16.8043 12.0856 16.3234 11.5792 16.2364C11.068 16.1511 10.5915 16.4909 10.505 16.9973C10.2245 18.6342 10.0733 20.3283 10.0386 22.0404H1.89748C2.07507 19.1472 3.0799 16.4109 4.74539 14.119C6.37353 14.7933 8.12825 15.334 9.99023 15.712C10.0531 15.7248 10.1155 15.7305 10.1766 15.7305C10.61 15.7305 10.9981 15.4272 11.0878 14.9854C11.1898 14.4817 10.8645 13.9903 10.3612 13.8883C8.82056 13.5749 7.3577 13.1494 5.99199 12.6223C6.77045 11.7999 7.64254 11.0553 8.60913 10.4131ZM28.9568 32.0338C26.952 31.1788 24.7669 30.5467 22.4623 30.1546C22.9137 28.1599 23.1876 26.0571 23.2588 23.901H31.9669C31.7797 26.9419 30.6887 29.7428 28.9568 32.0338ZM20.6166 29.8914C19.3414 29.7485 18.0408 29.6672 16.719 29.6672C15.3529 29.6672 14.0078 29.7551 12.6883 29.9098C12.2456 28.0017 11.9766 25.9797 11.905 23.901H21.3968C21.3252 25.9731 21.0566 27.9898 20.6166 29.8914ZM16.9344 38.0338C16.6764 38.0338 16.4192 38.0267 16.1652 38.014C14.9045 36.2399 13.8962 34.0984 13.174 31.7243C14.3348 31.5986 15.5181 31.5283 16.719 31.5283C17.8755 31.5283 19.0153 31.5898 20.1326 31.7059C19.4091 34.0935 18.3946 36.247 17.1265 38.0285C17.0619 38.0298 16.9986 38.0338 16.9344 38.0338ZM10.8443 30.1779C8.71375 30.5503 6.6843 31.1265 4.80825 31.8962C3.13528 29.6311 2.08342 26.8817 1.90012 23.901H10.0425C10.1142 26.065 10.3902 28.1771 10.8443 30.1779ZM6.07067 33.3903C7.70935 32.7648 9.47067 32.2979 11.3107 31.9854C11.9203 34.0654 12.7353 35.9929 13.7353 37.6892C10.7581 37.0426 8.10803 35.5133 6.07067 33.3903ZM19.4896 37.8118C20.5274 36.0804 21.3726 34.1019 21.9981 31.9608C24.0043 32.2922 25.9155 32.8105 27.6803 33.5129C25.5115 35.7234 22.6693 37.2667 19.4896 37.8118Z" fill="#D97014"/>
</svg>
