<svg width="22" height="40" viewBox="0 0 22 40" fill="none" xmlns="http://www.w3.org/2000/svg">
<path fill-rule="evenodd" clip-rule="evenodd" d="M18.4974 39.1668H3.4974C1.65656 39.1668 0.164062 37.6743 0.164062 35.8335V4.16683C0.164062 2.326 1.65656 0.833496 3.4974 0.833496H18.4974C20.3382 0.833496 21.8307 2.326 21.8307 4.16683V35.8335C21.8307 37.6743 20.3382 39.1668 18.4974 39.1668ZM20.1641 4.16683C20.1641 3.24683 19.4174 2.50016 18.4974 2.50016H3.4974C2.5774 2.50016 1.83073 3.24683 1.83073 4.16683V7.50016H20.1641V4.16683ZM20.1641 9.16683H1.83073V30.8335H20.1641V9.16683ZM20.1641 32.5002H1.83073V35.8335C1.83073 36.7535 2.5774 37.5002 3.4974 37.5002H18.4974C19.4174 37.5002 20.1641 36.7535 20.1641 35.8335V32.5002ZM10.9974 36.6668C10.0774 36.6668 9.33073 35.9202 9.33073 35.0002C9.33073 34.0802 10.0774 33.3335 10.9974 33.3335C11.9174 33.3335 12.6641 34.0802 12.6641 35.0002C12.6641 35.9202 11.9174 36.6668 10.9974 36.6668ZM5.16406 11.6668H6.83073C7.29156 11.6668 7.66406 12.0402 7.66406 12.5002V14.1668C7.66406 14.6268 7.29156 15.0002 6.83073 15.0002H5.16406C4.70323 15.0002 4.33073 14.6268 4.33073 14.1668V12.5002C4.33073 12.0402 4.70323 11.6668 5.16406 11.6668ZM5.16406 17.5002H6.83073C7.29156 17.5002 7.66406 17.8735 7.66406 18.3335V20.0002C7.66406 20.461 7.29156 20.8335 6.83073 20.8335H5.16406C4.70323 20.8335 4.33073 20.461 4.33073 20.0002V18.3335C4.33073 17.8735 4.70323 17.5002 5.16406 17.5002ZM5.16406 23.3335H6.83073C7.29156 23.3335 7.66406 23.706 7.66406 24.1668V25.8335C7.66406 26.2943 7.29156 26.6668 6.83073 26.6668H5.16406C4.70323 26.6668 4.33073 26.2943 4.33073 25.8335V24.1668C4.33073 23.706 4.70323 23.3335 5.16406 23.3335ZM10.1641 11.6668H11.8307C12.2916 11.6668 12.6641 12.0402 12.6641 12.5002V14.1668C12.6641 14.6268 12.2916 15.0002 11.8307 15.0002H10.1641C9.70323 15.0002 9.33073 14.6268 9.33073 14.1668V12.5002C9.33073 12.0402 9.70323 11.6668 10.1641 11.6668ZM10.1641 17.5002H11.8307C12.2916 17.5002 12.6641 17.8735 12.6641 18.3335V20.0002C12.6641 20.461 12.2916 20.8335 11.8307 20.8335H10.1641C9.70323 20.8335 9.33073 20.461 9.33073 20.0002V18.3335C9.33073 17.8735 9.70323 17.5002 10.1641 17.5002ZM10.1641 23.3335H11.8307C12.2916 23.3335 12.6641 23.706 12.6641 24.1668V25.8335C12.6641 26.2943 12.2916 26.6668 11.8307 26.6668H10.1641C9.70323 26.6668 9.33073 26.2943 9.33073 25.8335V24.1668C9.33073 23.706 9.70323 23.3335 10.1641 23.3335ZM15.1641 11.6668H16.8307C17.2916 11.6668 17.6641 12.0402 17.6641 12.5002V14.1668C17.6641 14.6268 17.2916 15.0002 16.8307 15.0002H15.1641C14.7032 15.0002 14.3307 14.6268 14.3307 14.1668V12.5002C14.3307 12.0402 14.7032 11.6668 15.1641 11.6668ZM15.1641 17.5002H16.8307C17.2916 17.5002 17.6641 17.8735 17.6641 18.3335V20.0002C17.6641 20.461 17.2916 20.8335 16.8307 20.8335H15.1641C14.7032 20.8335 14.3307 20.461 14.3307 20.0002V18.3335C14.3307 17.8735 14.7032 17.5002 15.1641 17.5002ZM8.4974 4.16683H13.4974C13.9582 4.16683 14.3307 4.54016 14.3307 5.00016C14.3307 5.46016 13.9582 5.8335 13.4974 5.8335H8.4974C8.03656 5.8335 7.66406 5.46016 7.66406 5.00016C7.66406 4.54016 8.03656 4.16683 8.4974 4.16683Z" fill="#D97014"/>
</svg>
